<svg width="16" height="16" viewBox="0 0 16 16" fill="none" xmlns="http://www.w3.org/2000/svg">
<path opacity="0.1" d="M12.3337 5.5332C12.4436 5.53118 12.5526 5.55122 12.6541 5.59082C12.7558 5.63057 12.8484 5.68976 12.9246 5.76465C13.0006 5.83946 13.0597 5.92815 13.0974 6.02539C13.1352 6.12275 13.1503 6.22666 13.1433 6.33008L12.6902 13.3574C12.6645 13.7983 12.4622 14.2137 12.1238 14.5195C11.7854 14.8253 11.3361 14.9986 10.8669 15.0049L5.40405 15.0664C4.9284 15.0762 4.46654 14.913 4.11499 14.6113C3.76362 14.3096 3.54871 13.8918 3.51538 13.4453L2.8562 6.33691C2.84814 6.23296 2.86289 6.12843 2.90015 6.03027C2.93743 5.93207 2.99672 5.84224 3.073 5.7666C3.14924 5.69106 3.24133 5.63094 3.34351 5.59082C3.44574 5.55069 3.556 5.53103 3.66675 5.5332H12.3337ZM9.22339 1.83301C9.4025 1.83333 9.57622 1.89684 9.71362 2.01172C9.85094 2.12657 9.94426 2.2858 9.97632 2.46191L10.1541 3.43359H5.86694L6.05151 2.45508C6.08643 2.27981 6.18093 2.12215 6.31909 2.00879C6.45752 1.8953 6.6313 1.83275 6.8103 1.83301H9.22339Z" fill="#8E9198"/>
<path d="M5.52007 15.1666C4.96436 15.1614 4.43097 14.9473 4.02585 14.5669C3.62073 14.1864 3.37355 13.6675 3.3334 13.1133L2.84673 6.15327C2.84236 6.08761 2.85095 6.02173 2.87204 5.95939C2.89312 5.89706 2.92628 5.83948 2.96961 5.78996C3.01294 5.74043 3.06561 5.69993 3.1246 5.67076C3.18358 5.64158 3.24774 5.62432 3.3134 5.61994C3.37906 5.61556 3.44494 5.62416 3.50728 5.64524C3.56962 5.66633 3.62719 5.69948 3.67672 5.74282C3.72624 5.78615 3.76674 5.83881 3.79592 5.8978C3.82509 5.95679 3.84236 6.02094 3.84673 6.08661L4.32007 13.0466C4.3437 13.3531 4.4828 13.6392 4.70926 13.8471C4.93573 14.055 5.23266 14.1692 5.54007 14.1666L10.5734 14.1066C10.8792 14.1036 11.1724 13.9839 11.3929 13.772C11.6135 13.5602 11.7448 13.2721 11.7601 12.9666L12.1534 6.08661C12.1636 5.95398 12.225 5.83051 12.3245 5.74222C12.424 5.65392 12.5538 5.60769 12.6867 5.61327C12.8182 5.62185 12.941 5.68199 13.0284 5.78062C13.1158 5.87924 13.1607 6.00837 13.1534 6.13994L12.7601 13.0266C12.7265 13.5834 12.484 14.1069 12.0811 14.4926C11.6781 14.8782 11.1444 15.0975 10.5867 15.1066L5.5534 15.1666H5.52007ZM9.98673 8.56661C9.98501 8.43453 9.93177 8.30836 9.83838 8.21496C9.74498 8.12156 9.6188 8.06833 9.48673 8.06661H6.5134C6.38079 8.06661 6.25361 8.11928 6.15985 8.21305C6.06608 8.30682 6.0134 8.434 6.0134 8.56661C6.0134 8.69921 6.06608 8.82639 6.15985 8.92016C6.25361 9.01393 6.38079 9.06661 6.5134 9.06661H9.48673C9.55351 9.06839 9.61996 9.05677 9.68217 9.03244C9.74438 9.00811 9.80109 8.97157 9.84894 8.92496C9.89679 8.87835 9.93481 8.82263 9.96077 8.76108C9.98673 8.69953 10.0001 8.6334 10.0001 8.56661H9.98673ZM9.46673 11.0333C9.46673 10.9007 9.41405 10.7735 9.32029 10.6797C9.22652 10.586 9.09934 10.5333 8.96673 10.5333H7.0334C6.90079 10.5333 6.77361 10.586 6.67985 10.6797C6.58608 10.7735 6.5334 10.9007 6.5334 11.0333C6.5334 11.1659 6.58608 11.2931 6.67985 11.3868C6.77361 11.4806 6.90079 11.5333 7.0334 11.5333H8.96673C9.0988 11.5315 9.22498 11.4783 9.31838 11.3849C9.41177 11.2915 9.46501 11.1653 9.46673 11.0333ZM14.0001 4.34661C13.9838 4.46558 13.9248 4.57455 13.834 4.6531C13.7432 4.73165 13.6268 4.77437 13.5067 4.77327H13.4334C9.83476 4.27871 6.18538 4.27871 2.58673 4.77327C2.52058 4.7847 2.45282 4.78287 2.38738 4.76788C2.32195 4.75289 2.26014 4.72505 2.20556 4.68597C2.15097 4.6469 2.1047 4.59736 2.06942 4.54025C2.03414 4.48313 2.01057 4.41958 2.00007 4.35327C1.97891 4.22244 2.01056 4.08856 2.08807 3.98106C2.16557 3.87355 2.28259 3.80121 2.4134 3.77994C2.50007 3.77994 3.42007 3.61994 4.86673 3.50661L5.10673 2.25327C5.1829 1.85318 5.39649 1.49228 5.71057 1.23299C6.02464 0.973692 6.41945 0.832304 6.82673 0.833272H9.18007C9.59039 0.831315 9.98831 0.973881 10.304 1.23597C10.6198 1.49805 10.8331 1.86293 10.9067 2.26661L11.1334 3.50661C11.9267 3.57327 12.7401 3.65327 13.5734 3.77994C13.6387 3.78893 13.7016 3.81075 13.7584 3.84415C13.8153 3.87754 13.865 3.92185 13.9046 3.97451C13.9443 4.02718 13.9731 4.08717 13.9895 4.15103C14.0059 4.21489 14.0095 4.28135 14.0001 4.34661ZM7.70673 3.39327H10.0934L9.92007 2.44661C9.88887 2.27474 9.79842 2.11925 9.66443 2.00719C9.53044 1.89512 9.3614 1.83358 9.18673 1.83327H6.8334C6.65887 1.83302 6.48967 1.89338 6.35471 2.00402C6.21974 2.11467 6.12738 2.26875 6.0934 2.43994L5.9134 3.39327H7.70673Z" fill="#8E9198"/>
</svg>
