<svg width="16" height="16" viewBox="0 0 16 16" fill="none" xmlns="http://www.w3.org/2000/svg">
<path opacity="0.1" d="M13.1999 7.43343C13.1999 10.6551 10.5882 13.2668 7.36654 13.2668C4.14488 13.2668 1.5332 10.6551 1.5332 7.43343C1.5332 4.21177 4.14488 1.6001 7.36654 1.6001C10.5882 1.6001 13.1999 4.21177 13.1999 7.43343Z" fill="#99A1B7"/>
<path fill-rule="evenodd" clip-rule="evenodd" d="M12.0044 11.203C12.8636 10.1649 13.3799 8.83267 13.3799 7.37988C13.3799 4.06617 10.6936 1.37988 7.37988 1.37988C4.06617 1.37988 1.37988 4.06617 1.37988 7.37988C1.37988 10.6936 4.06617 13.3799 7.37988 13.3799C8.83269 13.3799 10.1649 12.8635 11.203 12.0044L13.6459 14.4472C13.8672 14.6685 14.226 14.6685 14.4473 14.4472C14.6686 14.2259 14.6686 13.8671 14.4473 13.6458L12.0044 11.203ZM7.37988 12.2679C4.68033 12.2679 2.49191 10.0794 2.49191 7.37988C2.49191 4.68033 4.68033 2.49191 7.37988 2.49191C10.0794 2.49191 12.2679 4.68033 12.2679 7.37988C12.2679 10.0794 10.0794 12.2679 7.37988 12.2679Z" fill="#99A1B7"/>
</svg>
