<svg width="16" height="16" viewBox="0 0 16 16" fill="none" xmlns="http://www.w3.org/2000/svg">
<g clip-path="url(#clip0_356_5763)">
<path opacity="0.1" d="M8.00007 15.2667C6.56286 15.2667 5.15792 14.8405 3.96292 14.0421C2.76793 13.2436 1.83654 12.1087 1.28654 10.7809C0.736547 9.45309 0.592643 7.992 0.873029 6.58241C1.15341 5.17281 1.8455 3.87802 2.86176 2.86176C3.87802 1.8455 5.17281 1.15341 6.58241 0.873029C7.992 0.592643 9.45309 0.736547 10.7809 1.28654C12.1087 1.83654 13.2436 2.76793 14.0421 3.96292C14.8405 5.15792 15.2667 6.56286 15.2667 8.00007C15.2649 9.92676 14.4988 11.774 13.1364 13.1364C11.774 14.4988 9.92676 15.2649 8.00007 15.2667Z" fill="#F40505"/>
<path fill-rule="evenodd" clip-rule="evenodd" d="M8.00008 15.3332C6.54969 15.3332 5.13186 14.9031 3.9259 14.0973C2.71994 13.2915 1.78001 12.1462 1.22497 10.8062C0.669925 9.46619 0.524701 7.9917 0.807659 6.56918C1.09062 5.14665 1.78905 3.83997 2.81463 2.81439C3.84022 1.78881 5.14689 1.09037 6.56942 0.807415C7.99195 0.524457 9.46644 0.669681 10.8064 1.22472C12.1464 1.77977 13.2917 2.7197 14.0975 3.92566C14.9033 5.13162 15.3334 6.54944 15.3334 7.99984C15.3316 9.9442 14.5584 11.8084 13.1835 13.1833C11.8087 14.5582 9.94445 15.3314 8.00008 15.3332ZM8.00008 1.68976C6.75207 1.68976 5.53208 2.05984 4.49439 2.7532C3.45671 3.44656 2.64793 4.43206 2.17033 5.58508C1.69274 6.73809 1.56778 8.00684 1.81125 9.23087C2.05473 10.4549 2.65571 11.5793 3.53819 12.4617C4.42067 13.3442 5.54501 13.9452 6.76905 14.1887C7.99308 14.4321 9.26183 14.3072 10.4148 13.8296C11.5679 13.352 12.5534 12.5432 13.2467 11.5055C13.9401 10.4678 14.3102 9.24785 14.3102 7.99984C14.3084 6.32686 13.643 4.72291 12.46 3.53994C11.277 2.35696 9.67306 1.69157 8.00008 1.68976ZM8.00012 7.04476C8.18105 7.04476 8.35456 7.11663 8.48249 7.24456C8.61042 7.37249 8.68229 7.54601 8.68229 7.72693V10.9058C8.68229 11.0868 8.61042 11.2603 8.48249 11.3882C8.35456 11.5161 8.18105 11.588 8.00012 11.588C7.8192 11.588 7.64569 11.5161 7.51776 11.3882C7.38982 11.2603 7.31795 11.0868 7.31795 10.9058V7.72693C7.31795 7.54601 7.38982 7.37249 7.51776 7.24456C7.64569 7.11663 7.8192 7.04476 8.00012 7.04476ZM8.85281 5.26433C8.85281 5.73527 8.47103 6.11705 8.00009 6.11705C7.52915 6.11705 7.14738 5.73527 7.14738 5.26433C7.14738 4.79339 7.52915 4.41162 8.00009 4.41162C8.47103 4.41162 8.85281 4.79339 8.85281 5.26433Z" fill="#F40505"/>
</g>
<defs>
<clipPath id="clip0_356_5763">
<rect width="16" height="16" fill="white"/>
</clipPath>
</defs>
</svg>
