<svg width="18" height="18" viewBox="0 0 18 18" fill="none" xmlns="http://www.w3.org/2000/svg">
<path fill-rule="evenodd" clip-rule="evenodd" d="M10.2751 4.0875C10.2751 4.79166 9.70426 5.3625 9.0001 5.3625C8.29593 5.3625 7.7251 4.79166 7.7251 4.0875C7.7251 3.38334 8.29593 2.8125 9.0001 2.8125C9.70426 2.8125 10.2751 3.38334 10.2751 4.0875ZM10.2751 8.99971C10.2751 9.70387 9.70426 10.2747 9.0001 10.2747C8.29593 10.2747 7.7251 9.70387 7.7251 8.99971C7.7251 8.29554 8.29593 7.72471 9.0001 7.72471C9.70426 7.72471 10.2751 8.29554 10.2751 8.99971ZM9.0001 15.1875C9.70426 15.1875 10.2751 14.6167 10.2751 13.9125C10.2751 13.2083 9.70426 12.6375 9.0001 12.6375C8.29593 12.6375 7.7251 13.2083 7.7251 13.9125C7.7251 14.6167 8.29593 15.1875 9.0001 15.1875Z" fill="#78829D"/>
</svg>
