<svg width="16" height="16" viewBox="0 0 16 16" fill="none" xmlns="http://www.w3.org/2000/svg">
<g clip-path="url(#clip0_133_4053)">
<path opacity="0.1" d="M11.2168 0.866699H4.84988C3.81168 0.868446 2.8165 1.28164 2.08238 2.01576C1.34826 2.74988 0.935065 3.74506 0.933319 4.78326V13.9109C0.936752 14.2164 1.05963 14.5084 1.27564 14.7244C1.49166 14.9404 1.78366 15.0633 2.08913 15.0667H11.2036C12.2418 15.065 13.2369 14.6518 13.971 13.9176C14.7052 13.1835 15.1184 12.1883 15.1201 11.1501V4.78326C15.1184 3.74734 14.707 2.75415 13.9757 2.02041C13.2445 1.28666 12.2527 0.87193 11.2168 0.866699Z" fill="#8E9198"/>
<path d="M11.2133 0.833313H4.78668C3.73873 0.835076 2.73421 1.25215 1.9932 1.99316C1.25218 2.73418 0.835106 3.7387 0.833344 4.78665V14C0.836808 14.3083 0.960837 14.6031 1.17888 14.8211C1.39693 15.0392 1.69167 15.1632 2.00001 15.1666H11.2C12.248 15.1649 13.2525 14.7478 13.9935 14.0068C14.7345 13.2658 15.1516 12.2613 15.1533 11.2133V4.78665C15.1516 3.741 14.7364 2.73849 13.9982 1.99785C13.2601 1.25722 12.259 0.838593 11.2133 0.833313ZM14.1667 11.2133C14.1649 11.996 13.8532 12.7462 13.2997 13.2997C12.7462 13.8532 11.9961 14.1649 11.2133 14.1666H2.00001C1.95683 14.1636 1.91621 14.145 1.8856 14.1144C1.85499 14.0838 1.83644 14.0432 1.83334 14V4.78665C1.8351 4.00391 2.14682 3.25375 2.7003 2.70027C3.25378 2.14679 4.00395 1.83507 4.78668 1.83331H11.2133C11.9961 1.83507 12.7462 2.14679 13.2997 2.70027C13.8532 3.25375 14.1649 4.00391 14.1667 4.78665V11.2133ZM11.1667 4.70665L10.0467 3.83998C9.86298 3.69747 9.6525 3.59338 9.42775 3.53389C9.203 3.47439 8.96858 3.46073 8.73843 3.49369C8.50829 3.52666 8.28713 3.60559 8.08812 3.72578C7.88911 3.84597 7.71631 4.00497 7.58001 4.19331L4.49334 8.36665C4.28718 8.64782 4.17098 8.98483 4.16001 9.33331V11.0133C4.15741 11.2443 4.20915 11.4726 4.31106 11.6799C4.41297 11.8872 4.56219 12.0676 4.74668 12.2066C4.99273 12.3918 5.29208 12.4924 5.60001 12.4933C5.73423 12.5 5.86875 12.4888 6.00001 12.46L7.56668 12C7.90999 11.8969 8.20984 11.6837 8.42001 11.3933L11.5067 7.21998C11.7915 6.84035 11.9154 6.36391 11.8518 5.89363C11.7882 5.42334 11.5421 4.99696 11.1667 4.70665ZM8.88668 4.48665H8.98668C9.15036 4.48761 9.30935 4.54138 9.44001 4.63998L10.5533 5.49998C10.7176 5.63013 10.8248 5.81913 10.8522 6.02694C10.8796 6.23475 10.825 6.44505 10.7 6.61331L10.3533 7.08665C9.80792 7.12583 9.26708 6.96354 8.83333 6.63055C8.39958 6.29756 8.10307 5.81701 8.00001 5.27998L8.36668 4.78665C8.42728 4.70279 8.50495 4.6327 8.59457 4.581C8.68419 4.52929 8.78374 4.49714 8.88668 4.48665ZM7.62001 10.78C7.53622 10.8967 7.41696 10.9832 7.28001 11.0266L5.70001 11.5C5.63721 11.5212 5.57005 11.5263 5.50478 11.5146C5.43951 11.503 5.37824 11.475 5.32668 11.4333C5.26741 11.3896 5.21951 11.3322 5.18703 11.2661C5.15454 11.1999 5.13842 11.127 5.14001 11.0533V9.37331C5.15794 9.21822 5.22579 9.07315 5.33334 8.95998L7.33334 6.24665C7.54322 6.71613 7.86731 7.12559 8.27604 7.43768C8.68478 7.74976 9.16516 7.95453 9.67334 8.03331L7.62001 10.78Z" fill="#8E9198"/>
</g>
<defs>
<clipPath id="clip0_133_4053">
<rect width="16" height="16" fill="white"/>
</clipPath>
</defs>
</svg>
