<svg width="7" height="9" viewBox="0 0 7 9" fill="none" xmlns="http://www.w3.org/2000/svg">
<path d="M3.50001 9C3.32501 9 3.20834 8.94289 3.09168 8.82857L0.174998 5.97144C-0.0583327 5.74287 -0.0583327 5.40001 0.174998 5.17143C0.408329 4.94286 0.758331 4.94286 0.991672 5.17143L3.50001 7.62856L6.00835 5.17143C6.24169 4.94286 6.59172 4.94286 6.82502 5.17143C7.05833 5.40001 7.05833 5.74287 6.82502 5.97144L3.90834 8.82857C3.79168 8.94289 3.67501 9 3.50001 9Z" fill="#78829D"/>
<path d="M0.58333 4C0.408329 4 0.291669 3.94286 0.174998 3.82857C-0.0583327 3.6 -0.0583327 3.25714 0.174998 3.02857L3.09168 0.171426C3.32501 -0.0571421 3.67501 -0.0571421 3.90834 0.171426L6.82502 3.02857C7.05833 3.25714 7.05833 3.6 6.82502 3.82857C6.59172 4.05714 6.24169 4.05714 6.00835 3.82857L3.50001 1.37143L0.991672 3.82857C0.875001 3.94286 0.758331 4 0.58333 4Z" fill="#78829D"/>
</svg>
