<svg width="16" height="16" viewBox="0 0 16 16" fill="none" xmlns="http://www.w3.org/2000/svg">
<g clip-path="url(#clip0_1071_14068)">
<path fill-rule="evenodd" clip-rule="evenodd" d="M7.29871 0.833253H8.70137C9.30036 0.833233 9.79984 0.833217 10.1964 0.886528C10.6149 0.942797 10.9928 1.06658 11.2964 1.37022C11.6 1.67387 11.7238 2.05174 11.7801 2.47027C11.7953 2.58298 11.8061 2.70401 11.8139 2.83327C12.2067 2.8335 12.5389 2.83606 12.8127 2.86391C13.1283 2.89602 13.4213 2.96583 13.6853 3.14223C13.8854 3.27598 14.0573 3.44786 14.1911 3.64804C14.3675 3.91204 14.4373 4.20495 14.4694 4.5206C14.5001 4.82216 14.5001 5.19465 14.5 5.64104V14.1666H14.6667C14.9428 14.1666 15.1667 14.3904 15.1667 14.6666C15.1667 14.9427 14.9428 15.1666 14.6667 15.1666H1.33337C1.05723 15.1666 0.833374 14.9427 0.833374 14.6666C0.833374 14.3904 1.05723 14.1666 1.33337 14.1666H1.50004L1.50004 5.64102C1.50003 5.19464 1.50002 4.82215 1.5307 4.5206C1.56281 4.20495 1.63262 3.91204 1.80901 3.64804C1.94277 3.44786 2.11465 3.27598 2.31483 3.14223C2.57883 2.96583 2.87174 2.89602 3.18739 2.86391C3.46114 2.83606 3.79334 2.8335 4.18622 2.83327C4.19398 2.70401 4.20483 2.58298 4.21998 2.47027C4.27625 2.05174 4.40003 1.67387 4.70368 1.37022C5.00732 1.06658 5.38519 0.942797 5.80372 0.886528C6.20024 0.833217 6.69972 0.833233 7.29871 0.833253ZM4.16672 3.83332C3.77832 3.83375 3.50395 3.83687 3.28859 3.85877C3.05201 3.88284 2.9427 3.92539 2.8704 3.9737C2.77941 4.03449 2.70128 4.11262 2.64048 4.20361C2.59217 4.27591 2.54963 4.38523 2.52556 4.62181C2.50065 4.86674 2.50004 5.18803 2.50004 5.66659V14.1666H4.16671V9.83325H3.66671C3.39056 9.83325 3.16671 9.6094 3.16671 9.33325C3.16671 9.05711 3.39056 8.83325 3.66671 8.83325H4.16671V7.83325H3.66671C3.39056 7.83325 3.16671 7.6094 3.16671 7.33325C3.16671 7.05711 3.39056 6.83325 3.66671 6.83325H4.16671V5.83325H3.66671C3.39056 5.83325 3.16671 5.6094 3.16671 5.33325C3.16671 5.05711 3.39056 4.83325 3.66671 4.83325H4.16671L4.16671 3.96526C4.1667 3.92073 4.1667 3.87675 4.16672 3.83332ZM5.16671 14.1666H7.50004V12.6666C7.50004 12.3904 7.7239 12.1666 8.00004 12.1666C8.27618 12.1666 8.50004 12.3904 8.50004 12.6666V14.1666H10.8334V3.99992C10.8334 3.35725 10.8323 2.92554 10.789 2.60351C10.7477 2.29587 10.6762 2.16421 10.5893 2.07733C10.5024 1.99045 10.3708 1.91897 10.0631 1.87761C9.74109 1.83432 9.30938 1.83325 8.66671 1.83325H7.33337C6.6907 1.83325 6.25899 1.83432 5.93697 1.87761C5.62933 1.91897 5.49766 1.99045 5.41078 2.07733C5.32391 2.16421 5.25243 2.29587 5.21106 2.60351C5.16777 2.92554 5.16671 3.35725 5.16671 3.99992V14.1666ZM11.8334 5.83325H12.3334C12.6095 5.83325 12.8334 5.6094 12.8334 5.33325C12.8334 5.05711 12.6095 4.83325 12.3334 4.83325H11.8334L11.8334 3.96526C11.8334 3.92073 11.8334 3.87675 11.8334 3.83332C12.2218 3.83375 12.4961 3.83687 12.7115 3.85877C12.9481 3.88284 13.0574 3.92539 13.1297 3.9737C13.2207 4.03449 13.2988 4.11262 13.3596 4.20361C13.4079 4.27591 13.4505 4.38523 13.4745 4.62181C13.4994 4.86674 13.5 5.18803 13.5 5.66659V14.1666H11.8334V9.83325H12.3334C12.6095 9.83325 12.8334 9.6094 12.8334 9.33325C12.8334 9.05711 12.6095 8.83325 12.3334 8.83325H11.8334V7.83325H12.3334C12.6095 7.83325 12.8334 7.6094 12.8334 7.33325C12.8334 7.05711 12.6095 6.83325 12.3334 6.83325H11.8334V5.83325ZM8.00004 3.83325C7.5398 3.83325 7.16671 4.20635 7.16671 4.66659C7.16671 5.12682 7.5398 5.49992 8.00004 5.49992C8.46028 5.49992 8.83337 5.12682 8.83337 4.66659C8.83337 4.20635 8.46028 3.83325 8.00004 3.83325ZM6.16671 4.66659C6.16671 3.65406 6.98752 2.83325 8.00004 2.83325C9.01256 2.83325 9.83337 3.65406 9.83337 4.66659C9.83337 5.67911 9.01256 6.49992 8.00004 6.49992C6.98752 6.49992 6.16671 5.67911 6.16671 4.66659ZM6.16671 7.99992C6.16671 7.72378 6.39056 7.49992 6.66671 7.49992H9.33337C9.60952 7.49992 9.83337 7.72378 9.83337 7.99992C9.83337 8.27606 9.60952 8.49992 9.33337 8.49992H6.66671C6.39056 8.49992 6.16671 8.27606 6.16671 7.99992ZM6.16671 9.99992C6.16671 9.72378 6.39056 9.49992 6.66671 9.49992H9.33337C9.60952 9.49992 9.83337 9.72378 9.83337 9.99992C9.83337 10.2761 9.60952 10.4999 9.33337 10.4999H6.66671C6.39056 10.4999 6.16671 10.2761 6.16671 9.99992Z" fill="#8E9198"/>
</g>
<defs>
<clipPath id="clip0_1071_14068">
<rect width="16" height="16" rx="3" fill="white"/>
</clipPath>
</defs>
</svg>
