<svg width="11" height="11" viewBox="0 0 11 11" fill="none" xmlns="http://www.w3.org/2000/svg">
<path fill-rule="evenodd" clip-rule="evenodd" d="M5.5 11C8.53757 11 11 8.53757 11 5.5C11 2.46243 8.53757 0 5.5 0C2.46243 0 0 2.46243 0 5.5C0 8.53757 2.46243 11 5.5 11ZM5.9125 3.85C5.9125 3.62218 5.72782 3.4375 5.5 3.4375C5.27218 3.4375 5.0875 3.62218 5.0875 3.85L5.0875 5.08751H3.85C3.62218 5.08751 3.4375 5.2722 3.4375 5.50001C3.4375 5.72783 3.62218 5.91251 3.85 5.91251H5.0875V7.15C5.0875 7.37782 5.27218 7.5625 5.5 7.5625C5.72782 7.5625 5.9125 7.37782 5.9125 7.15L5.9125 5.91251H7.15C7.37782 5.91251 7.5625 5.72783 7.5625 5.50001C7.5625 5.2722 7.37782 5.08751 7.15 5.08751H5.9125V3.85Z" fill="#991930"/>
</svg>
