<svg width="16" height="16" viewBox="0 0 16 16" fill="none" xmlns="http://www.w3.org/2000/svg">
<path opacity="0.1" d="M9.97604 2H5.35713C4.28993 2 3.26644 2.42394 2.51182 3.17857C1.75719 3.93319 1.33325 4.95668 1.33325 6.02388V10.6428C1.33325 11.71 1.75719 12.7335 2.51182 13.4881C3.26644 14.2427 4.28993 14.6667 5.35713 14.6667H9.97604C11.0432 14.6667 12.0667 14.2427 12.8214 13.4881C13.576 12.7335 13.9999 11.71 13.9999 10.6428V6.02388C13.9999 4.95668 13.576 3.93319 12.8214 3.17857C12.0667 2.42394 11.0432 2 9.97604 2Z" fill="#8E9198"/>
<path d="M11.0561 14.8999H4.13044C3.33317 14.8999 2.56845 14.5836 2.00409 14.0205C1.43973 13.4573 1.12182 12.6933 1.12012 11.896V4.97033C1.12012 4.17195 1.43728 3.40626 2.00182 2.84171C2.56637 2.27717 3.33205 1.96001 4.13044 1.96001H9.17547C9.2993 1.97401 9.41364 2.03312 9.49666 2.12605C9.57969 2.21899 9.62558 2.33925 9.62558 2.46387C9.62558 2.58849 9.57969 2.70875 9.49666 2.80168C9.41364 2.89462 9.2993 2.95373 9.17547 2.96773H4.13044C3.59932 2.96773 3.08995 3.17872 2.71439 3.55428C2.33883 3.92984 2.12784 4.43921 2.12784 4.97033V11.896C2.12954 12.426 2.34127 12.9337 2.71665 13.3079C3.09203 13.6821 3.60043 13.8922 4.13044 13.8922H11.0561C11.5861 13.8922 12.0945 13.6821 12.4699 13.3079C12.8453 12.9337 13.057 12.426 13.0587 11.896V6.76112C13.0507 6.69018 13.0578 6.61834 13.0794 6.55031C13.1011 6.48228 13.1369 6.41959 13.1844 6.36635C13.232 6.31311 13.2903 6.27051 13.3554 6.24134C13.4206 6.21217 13.4912 6.19709 13.5626 6.19709C13.634 6.19709 13.7046 6.21217 13.7697 6.24134C13.8349 6.27051 13.8932 6.31311 13.9407 6.36635C13.9883 6.41959 14.0241 6.48228 14.0457 6.55031C14.0674 6.61834 14.0745 6.69018 14.0664 6.76112V11.896C14.0647 12.6933 13.7468 13.4573 13.1825 14.0205C12.6181 14.5836 11.8534 14.8999 11.0561 14.8999ZM9.16263 7.52494L13.8739 2.8201V4.37982C13.8659 4.45077 13.8729 4.5226 13.8946 4.59063C13.9162 4.65866 13.952 4.72135 13.9996 4.7746C14.0472 4.82784 14.1054 4.87044 14.1706 4.89961C14.2358 4.92877 14.3064 4.94385 14.3777 4.94385C14.4491 4.94385 14.5197 4.92877 14.5849 4.89961C14.6501 4.87044 14.7083 4.82784 14.7559 4.7746C14.8035 4.72135 14.8392 4.65866 14.8609 4.59063C14.8826 4.5226 14.8896 4.45077 14.8816 4.37982V1.58131C14.8754 1.45565 14.8227 1.33678 14.7337 1.24781C14.6447 1.15885 14.5259 1.10613 14.4002 1.09991H11.5953C11.4714 1.11391 11.3571 1.17302 11.2741 1.26596C11.1911 1.3589 11.1452 1.47915 11.1452 1.60378C11.1452 1.7284 11.1911 1.84865 11.2741 1.94159C11.3571 2.03453 11.4714 2.09364 11.5953 2.10764H13.1614L8.45016 6.81247C8.35799 6.90816 8.3065 7.03585 8.3065 7.16871C8.3065 7.30156 8.35799 7.42925 8.45016 7.52494C8.49673 7.5721 8.5522 7.60954 8.61335 7.63509C8.6745 7.66065 8.74012 7.67381 8.8064 7.67381C8.87267 7.67381 8.93829 7.66065 8.99944 7.63509C9.06059 7.60954 9.11606 7.5721 9.16263 7.52494Z" fill="#8E9198"/>
</svg>
