<svg width="18" height="18" viewBox="0 0 18 18" fill="none" xmlns="http://www.w3.org/2000/svg">
<path opacity="0.1" d="M13.2901 16.2748H4.76361C3.77869 16.2748 2.83412 15.8835 2.13768 15.1871C1.44124 14.4907 1.04999 13.5461 1.04999 12.5612V5.51342C1.04999 4.52851 1.44124 3.58394 2.13768 2.8875C2.83412 2.19106 3.77869 1.7998 4.76361 1.7998H13.2901C14.275 1.7998 15.2196 2.19106 15.916 2.8875C16.6124 3.58394 17.0037 4.52851 17.0037 5.51342V12.5538C17.0047 13.0421 16.9093 13.5258 16.7232 13.9772C16.537 14.4286 16.2636 14.8389 15.9186 15.1845C15.5737 15.5301 15.164 15.8043 14.7129 15.9914C14.2619 16.1785 13.7784 16.2748 13.2901 16.2748Z" fill="#8E9198"/>
<path d="M13.309 16.3179H4.69099C3.6955 16.3179 2.74079 15.9224 2.03687 15.2185C1.33296 14.5146 0.9375 13.5599 0.9375 12.5644V5.44099C0.9375 4.4455 1.33296 3.49079 2.03687 2.78687C2.74079 2.08296 3.6955 1.6875 4.69099 1.6875H13.309C14.3045 1.6875 15.2592 2.08296 15.9631 2.78687C16.667 3.49079 17.0625 4.4455 17.0625 5.44099V12.5569C17.0635 13.0505 16.9671 13.5394 16.7789 13.9956C16.5907 14.4519 16.3144 14.8665 15.9658 15.2159C15.6171 15.5652 15.203 15.8424 14.7471 16.0315C14.2913 16.2206 13.8026 16.3179 13.309 16.3179ZM4.69099 2.80604C3.99216 2.80604 3.32195 3.08365 2.8278 3.5778C2.33365 4.07195 2.05604 4.74216 2.05604 5.44099V12.5569C2.05604 13.2557 2.33365 13.926 2.8278 14.4201C3.32195 14.9142 3.99216 15.1919 4.69099 15.1919H13.309C14.0078 15.1919 14.678 14.9142 15.1722 14.4201C15.6663 13.926 15.944 13.2557 15.944 12.5569V5.44099C15.944 4.74216 15.6663 4.07195 15.1722 3.5778C14.678 3.08365 14.0078 2.80604 13.309 2.80604H4.69099ZM10.644 8.76658L13.1138 6.67213C13.2253 6.57367 13.2945 6.43601 13.3071 6.28781C13.3197 6.1396 13.2747 5.99225 13.1814 5.87639C13.0829 5.76435 12.9445 5.69533 12.7958 5.6841C12.647 5.67288 12.4998 5.72034 12.3856 5.81634L9.91585 7.91079C9.65737 8.12836 9.33035 8.24768 8.99249 8.24768C8.65462 8.24768 8.32761 8.12836 8.06913 7.91079L5.53177 5.80883C5.41729 5.70928 5.26795 5.65929 5.11661 5.66985C4.96527 5.68041 4.82432 5.75065 4.72477 5.86513C4.62522 5.97961 4.57523 6.12895 4.58579 6.28029C4.59635 6.43164 4.66659 6.57259 4.78107 6.67213L7.34846 8.7816C7.80785 9.17391 8.39214 9.38945 8.99624 9.38945C9.60035 9.38945 10.1846 9.17391 10.644 8.7816V8.76658Z" fill="#8E9198"/>
</svg>
