<svg width="18" height="18" viewBox="0 0 18 18" fill="none" xmlns="http://www.w3.org/2000/svg">
<path opacity="0.1" d="M4.49845 5.85458L13.5764 5.85458C14.5196 5.88563 15.4121 6.28932 16.0582 6.97721C16.7043 7.6651 17.0514 8.58107 17.0233 9.52439L17.0233 12.8228C17.0514 13.7668 16.7046 14.6836 16.0587 15.3726C15.4127 16.0617 14.5203 16.467 13.5764 16.5L4.49845 16.5C3.55456 16.467 2.66211 16.0617 2.01619 15.3726C1.37028 14.6836 1.02344 13.7668 1.05151 12.8228L1.05151 9.52439C1.02347 8.58107 1.37054 7.6651 2.01665 6.97721C2.66276 6.28932 3.55522 5.88563 4.49845 5.85458Z" fill="#8E9198"/>
<path d="M17.0624 9.59977L17.0624 12.9298C17.0908 13.8821 16.7404 14.8069 16.088 15.5014C15.4357 16.1959 14.5347 16.6034 13.5824 16.6348L4.41745 16.6348C3.46517 16.6034 2.56415 16.1959 1.91184 15.5014C1.25954 14.8069 0.909142 13.8821 0.937448 12.9298L0.937447 9.59977C0.909113 8.64666 1.25927 7.7211 1.91138 7.02543C2.56349 6.32975 3.4645 5.92055 4.41745 5.88727C4.56932 5.88725 4.71508 5.94707 4.82317 6.05375C4.93126 6.16044 4.99297 6.30541 4.99495 6.45727C4.993 6.60982 4.93154 6.75559 4.82365 6.86347C4.71577 6.97136 4.57001 7.03282 4.41745 7.03477C3.76746 7.06588 3.15629 7.35327 2.71772 7.83401C2.27915 8.31474 2.04893 8.94966 2.07745 9.59977L2.07745 12.9298C2.05092 13.5794 2.28182 14.2132 2.71999 14.6935C3.15815 15.1738 3.76816 15.4617 4.41745 15.4948L13.5824 15.4948C14.2317 15.4617 14.8417 15.1738 15.2799 14.6935C15.7181 14.2132 15.949 13.5794 15.9224 12.9298L15.9224 9.59977C15.951 8.94966 15.7207 8.31474 15.2822 7.834C14.8436 7.35327 14.2324 7.06588 13.5824 7.03477C13.4299 7.03282 13.2841 6.97135 13.1762 6.86347C13.0684 6.75559 13.0069 6.60982 13.0049 6.45727C13.0069 6.30541 13.0686 6.16044 13.1767 6.05375C13.2848 5.94707 13.4306 5.88725 13.5824 5.88727C14.5354 5.92054 15.4364 6.32975 16.0885 7.02543C16.7406 7.7211 17.0908 8.64666 17.0624 9.59977ZM8.42995 1.93477L8.42995 9.47977L7.17745 8.22727C7.06852 8.12276 6.9234 8.0644 6.77245 8.0644C6.62149 8.0644 6.47638 8.12276 6.36745 8.22727C6.31393 8.28027 6.27145 8.34335 6.24246 8.41286C6.21347 8.48238 6.19854 8.55695 6.19854 8.63227C6.19854 8.70758 6.21347 8.78216 6.24246 8.85167C6.27145 8.92119 6.31393 8.98427 6.36745 9.03727L8.61745 11.2873C8.67045 11.3408 8.73353 11.3833 8.80304 11.4123C8.87256 11.4412 8.94713 11.4562 9.02245 11.4562C9.09777 11.4562 9.17234 11.4412 9.24185 11.4123C9.31137 11.3833 9.37445 11.3408 9.42745 11.2873L11.6774 9.03727C11.7306 8.98419 11.7726 8.92102 11.8009 8.85146C11.8293 8.7819 11.8434 8.70737 11.8424 8.63227C11.843 8.55722 11.8286 8.48281 11.8003 8.41331C11.772 8.34381 11.7303 8.28059 11.6774 8.22727C11.5685 8.12276 11.4234 8.0644 11.2724 8.0644C11.1215 8.0644 10.9764 8.12276 10.8674 8.22727L9.61495 9.47977L9.61495 1.93477C9.61495 1.85991 9.6002 1.78579 9.57156 1.71664C9.54291 1.64748 9.50093 1.58464 9.448 1.53171C9.39507 1.47879 9.33223 1.4368 9.26308 1.40815C9.19392 1.37951 9.1198 1.36477 9.04495 1.36477C8.97009 1.36477 8.89597 1.37951 8.82682 1.40815C8.75766 1.4368 8.69483 1.47879 8.6419 1.53171C8.58897 1.58464 8.54698 1.64748 8.51834 1.71664C8.48969 1.78579 8.47495 1.85991 8.47495 1.93477L8.42995 1.93477Z" fill="#8E9198"/>
</svg>
