<svg width="40" height="40" viewBox="0 0 40 40" fill="none" xmlns="http://www.w3.org/2000/svg">
<path d="M29.0661 25.6151C28.7495 25.6151 28.4328 25.4984 28.1828 25.2484C27.6995 24.7651 27.6995 23.9651 28.1828 23.4818L31.5661 20.0984L28.1828 16.7151C27.6995 16.2318 27.6995 15.4318 28.1828 14.9484C28.6661 14.4651 29.4661 14.4651 29.9495 14.9484L34.2161 19.2151C34.6995 19.6984 34.6995 20.4984 34.2161 20.9818L29.9495 25.2484C29.6995 25.4984 29.3828 25.6151 29.0661 25.6151Z" fill="white"/>
<path d="M33.2156 21.3516H16.2656C15.5823 21.3516 15.0156 20.7849 15.0156 20.1016C15.0156 19.4182 15.5823 18.8516 16.2656 18.8516H33.2156C33.899 18.8516 34.4656 19.4182 34.4656 20.1016C34.4656 20.7849 33.899 21.3516 33.2156 21.3516Z" fill="white"/>
<path d="M19.599 34.5846C11.0156 34.5846 5.01562 28.5846 5.01562 20.0013C5.01562 11.418 11.0156 5.41797 19.599 5.41797C20.2823 5.41797 20.849 5.98464 20.849 6.66797C20.849 7.3513 20.2823 7.91797 19.599 7.91797C12.4823 7.91797 7.51563 12.8846 7.51563 20.0013C7.51563 27.118 12.4823 32.0846 19.599 32.0846C20.2823 32.0846 20.849 32.6513 20.849 33.3346C20.849 34.018 20.2823 34.5846 19.599 34.5846Z" fill="white"/>
</svg>
