<svg width="14" height="14" viewBox="0 0 14 14" fill="none" xmlns="http://www.w3.org/2000/svg">
<g clip-path="url(#clip0_385_8684)">
<path d="M6.34088 9.44186L4.85135 7.64099C4.77804 7.54644 4.74354 7.4275 4.75489 7.3084C4.76623 7.1893 4.82256 7.07901 4.91239 7C5.00835 6.92007 5.13187 6.88103 5.25634 6.89131C5.38081 6.90158 5.49625 6.96035 5.5778 7.05494L6.68885 8.37965L8.39815 6.15756C8.43583 6.10825 8.48285 6.06686 8.53653 6.03573C8.5902 6.00459 8.64949 5.98434 8.71099 5.97612C8.7725 5.9679 8.83502 5.97188 8.89499 5.98782C8.95496 6.00376 9.0112 6.03136 9.0605 6.06904C9.10981 6.10672 9.1512 6.15374 9.18233 6.20742C9.21347 6.2611 9.23372 6.32038 9.24194 6.38189C9.25016 6.44339 9.24618 6.50591 9.23024 6.56588C9.2143 6.62585 9.1867 6.68209 9.14902 6.7314L7.07954 9.42965C7.03657 9.48663 6.98135 9.53321 6.91795 9.56597C6.85455 9.59873 6.7846 9.61681 6.71326 9.6189C6.64211 9.61792 6.57201 9.6016 6.50774 9.57104C6.44347 9.54049 6.38656 9.49643 6.34088 9.44186ZM13.1659 9.7532V5.27849C13.1643 4.60655 12.9865 3.94678 12.6501 3.36509C12.3138 2.7834 11.8306 2.30017 11.249 1.96366C11.1952 1.91845 11.132 1.88572 11.064 1.86782C10.996 1.84993 10.9249 1.84732 10.8558 1.86017C10.7866 1.87303 10.7212 1.90103 10.6642 1.94217C10.6072 1.98331 10.56 2.03657 10.526 2.09812C10.492 2.15967 10.4721 2.22798 10.4676 2.29815C10.4632 2.36832 10.4743 2.43861 10.5002 2.50396C10.5262 2.56931 10.5663 2.62811 10.6176 2.67613C10.669 2.72415 10.7303 2.7602 10.7973 2.78169C11.2351 3.03518 11.5986 3.39925 11.8515 3.83745C12.1043 4.27564 12.2376 4.77258 12.238 5.27849V9.73488C12.2364 10.498 11.9321 11.2293 11.3919 11.7684C10.8517 12.3074 10.1197 12.6102 9.35658 12.6102H4.656C3.89286 12.6102 3.16089 12.3074 2.6207 11.7684C2.08051 11.2293 1.77622 10.498 1.7746 9.73488V5.27849C1.7762 4.7721 1.91066 4.27501 2.16455 3.83686C2.41844 3.39872 2.78286 3.03488 3.2214 2.78169C3.27718 2.75007 3.32609 2.70764 3.36527 2.6569C3.40445 2.60615 3.43313 2.5481 3.44961 2.48615C3.46609 2.42419 3.47006 2.35957 3.46127 2.29606C3.45249 2.23255 3.43113 2.17143 3.39844 2.11628C3.36748 2.06225 3.3261 2.01491 3.27669 1.97701C3.22728 1.93911 3.17084 1.9114 3.11064 1.8955C3.05043 1.8796 2.98767 1.87581 2.92599 1.88437C2.86431 1.89293 2.80495 1.91366 2.75135 1.94535C2.16549 2.28216 1.67907 2.76783 1.34138 3.35318C1.00368 3.93852 0.826704 4.60272 0.828381 5.27849V9.73488C0.829995 10.7495 1.23378 11.7222 1.95125 12.4396C2.66871 13.1571 3.64135 13.5609 4.656 13.5625H9.33216C10.3474 13.5609 11.3206 13.1573 12.0391 12.44C12.7575 11.7227 13.1627 10.7501 13.1659 9.73488V9.7532ZM9.93042 2.11628V1.50581C9.93122 1.36581 9.90434 1.22703 9.85132 1.09745C9.7983 0.96787 9.72018 0.850052 9.62147 0.750769C9.52275 0.651486 9.40538 0.572698 9.27611 0.518936C9.14684 0.465174 9.00821 0.437498 8.86821 0.4375H5.40687C5.12354 0.4375 4.85181 0.550054 4.65146 0.750402C4.45111 0.95075 4.33856 1.22248 4.33856 1.50581V2.11628C4.33856 2.39961 4.45111 2.67134 4.65146 2.87169C4.85181 3.07204 5.12354 3.18459 5.40687 3.18459H8.86821C9.00821 3.1846 9.14684 3.15692 9.27611 3.10316C9.40538 3.04939 9.52275 2.97061 9.62147 2.87132C9.72018 2.77204 9.7983 2.65422 9.85132 2.52464C9.90434 2.39507 9.93122 2.25628 9.93042 2.11628ZM8.86821 1.38983C8.8957 1.39422 8.92069 1.40835 8.93862 1.42965C8.95655 1.45094 8.96623 1.47798 8.96588 1.50581V2.11628C8.96592 2.14763 8.9539 2.17779 8.93231 2.20052C8.91071 2.22325 8.8812 2.2368 8.84989 2.23837H5.40687C5.37776 2.23396 5.35122 2.21917 5.33215 2.19673C5.31308 2.1743 5.30276 2.14572 5.30309 2.11628V1.50581C5.30307 1.49005 5.30626 1.47446 5.31247 1.45997C5.31867 1.44548 5.32777 1.43242 5.33919 1.42156C5.35062 1.41071 5.36413 1.4023 5.37892 1.39684C5.3937 1.39138 5.40945 1.389 5.42518 1.38983H8.86821Z" fill="#EEEEEE"/>
<path opacity="0.1" d="M8.82324 0.466797C9.09808 0.46838 9.36127 0.578174 9.55566 0.772461C9.74998 0.966778 9.85964 1.23009 9.86133 1.50488V1.86719H10.9355C11.1378 1.86894 11.2088 1.92644 11.375 2.04199C11.834 2.36104 12.3185 2.83717 12.5996 3.32324C12.9325 3.89883 13.1096 4.5519 13.1123 5.2168V9.62207C13.1115 10.1216 13.0114 10.616 12.8193 11.0771C12.6272 11.5383 12.3463 11.9571 11.9922 12.3096C11.638 12.662 11.218 12.9419 10.7559 13.1318C10.2937 13.3218 9.79847 13.4186 9.29883 13.417H4.66992C3.664 13.4154 2.69961 13.015 1.98828 12.3037C1.277 11.5924 0.876664 10.628 0.875 9.62207V5.2168C0.876692 4.54949 1.05449 3.89442 1.38965 3.31738C1.72476 2.74048 2.20553 2.26176 2.78418 1.92969C2.83652 1.89781 2.89549 1.87655 2.95605 1.86719H4.375V1.50488C4.37669 1.23009 4.48635 0.966779 4.68066 0.772461C4.87498 0.578143 5.1383 0.468485 5.41309 0.466797H8.82324Z" fill="#EEEEEE"/>
</g>
<defs>
<clipPath id="clip0_385_8684">
<rect width="14" height="14" fill="white"/>
</clipPath>
</defs>
</svg>
