<svg width="14" height="14" viewBox="0 0 14 14" fill="none" xmlns="http://www.w3.org/2000/svg">
<path fill-rule="evenodd" clip-rule="evenodd" d="M5.5209 1.64533C6.46749 1.20155 7.53253 1.20156 8.47911 1.64534L12.3823 3.47524C12.9961 3.76303 13.2709 4.38796 13.2709 4.95835C13.2709 5.52873 12.9961 6.15367 12.3823 6.44145L11.5208 6.84536V9.69816C11.5208 10.4291 11.1543 11.1348 10.4871 11.5043C10.0486 11.7472 9.47233 12.0395 8.86591 12.2721C8.26662 12.5021 7.60303 12.6875 6.99992 12.6875C6.39681 12.6875 5.73322 12.5021 5.13393 12.2721C4.52751 12.0395 3.95125 11.7472 3.51274 11.5043C2.84557 11.1348 2.47909 10.4291 2.47909 9.69816V6.70833C2.47909 6.68416 2.48105 6.66045 2.48482 6.63735C2.47109 6.55331 2.4817 6.46441 2.52057 6.38149C2.62314 6.16272 2.88364 6.06851 3.10241 6.17108L5.89238 7.47908C6.60364 7.81253 7.39648 7.81253 8.10774 7.47908L12.0109 5.64919C12.2461 5.53893 12.3959 5.27592 12.3959 4.95835C12.3959 4.64078 12.2461 4.37776 12.0109 4.2675L8.10768 2.43759C7.39643 2.10414 6.60359 2.10414 5.89233 2.43759L1.98918 4.26747C1.77041 4.37004 1.50991 4.27583 1.40734 4.05706C1.30477 3.83828 1.39898 3.57778 1.61775 3.47522L5.5209 1.64533ZM3.35409 7.25545V9.69816C3.35409 10.1433 3.57502 10.5386 3.93665 10.7389C4.3547 10.9704 4.89221 11.2422 5.44735 11.4552C6.00962 11.6709 6.55536 11.8125 6.99992 11.8125C7.44448 11.8125 7.99022 11.6709 8.5525 11.4552C9.10763 11.2422 9.64514 10.9704 10.0632 10.7389C10.4248 10.5386 10.6458 10.1433 10.6458 9.69816V7.25558L8.47916 8.27133C7.53258 8.71511 6.46754 8.71511 5.52096 8.27133L3.35409 7.25545Z" fill="white"/>
<path d="M3.90205 4.49433C3.99723 4.71641 3.89435 4.97361 3.67226 5.06879L3.04478 5.33771C2.69317 5.4884 2.4615 5.58833 2.29125 5.68411C2.13026 5.77468 2.06051 5.84234 2.01618 5.90956C1.97185 5.97679 1.93714 6.06755 1.91731 6.2512C1.89634 6.44541 1.89575 6.69771 1.89575 7.08026V8.75C1.89575 8.99162 1.69988 9.1875 1.45825 9.1875C1.21663 9.1875 1.02075 8.99162 1.02075 8.75V7.0576C1.02074 6.70381 1.02073 6.40398 1.04737 6.15728C1.07571 5.89477 1.13734 5.65287 1.2857 5.42788C1.43405 5.20289 1.63211 5.05096 1.86223 4.9215C2.07849 4.79984 2.35407 4.68175 2.67925 4.54239L3.32758 4.26454C3.54967 4.16936 3.80687 4.27224 3.90205 4.49433Z" fill="white"/>
</svg>
