<svg width="14" height="14" viewBox="0 0 14 14" fill="none" xmlns="http://www.w3.org/2000/svg">
<path opacity="0.1" d="M7.87476 8.45801L7.58374 10.792L9.91675 12.7754H1.52417C1.4685 12.7663 1.41481 12.7466 1.36694 12.7168C1.31913 12.6869 1.27749 12.6475 1.24487 12.6016C1.21232 12.5556 1.18883 12.5032 1.17651 12.4482C1.16427 12.3934 1.16378 12.3366 1.17358 12.2812C1.57644 9.89862 3.95291 8.10845 6.70386 8.1084L7.87476 8.45801ZM9.73706 8.20508C10.1162 8.12921 10.5096 8.16686 10.8669 8.31445C11.2242 8.46211 11.5299 8.7129 11.7449 9.03418C11.9599 9.35567 12.0749 9.73434 12.075 10.1211C12.0749 10.6382 11.8698 11.1347 11.5046 11.501C11.1395 11.8671 10.6438 12.0736 10.1267 12.0752C9.74014 12.0764 9.36184 11.9628 9.03979 11.749C8.71766 11.535 8.46598 11.23 8.31714 10.873C8.1683 10.5161 8.12914 10.1226 8.20386 9.74316C8.27861 9.36381 8.46408 9.01504 8.73706 8.74121C9.01002 8.46745 9.35801 8.281 9.73706 8.20508ZM5.47632 1.4707C6.06247 1.22701 6.70809 1.16298 7.33081 1.28613C7.95351 1.4093 8.5261 1.71463 8.97534 2.16309C9.42442 2.6115 9.73003 3.18331 9.85425 3.80566C9.97847 4.42813 9.91526 5.07362 9.67261 5.66016C9.42993 6.2466 9.0186 6.74786 8.49097 7.10059C7.9634 7.4532 7.34329 7.64151 6.70874 7.6416C6.28773 7.64234 5.87038 7.55999 5.4812 7.39941C5.09209 7.23884 4.73813 7.00341 4.44019 6.70605C4.14219 6.40858 3.9052 6.05495 3.7439 5.66602C3.58268 5.27723 3.4998 4.86034 3.49976 4.43945C3.49864 3.80473 3.68605 3.18359 4.03784 2.65527C4.38967 2.12698 4.89024 1.71441 5.47632 1.4707Z" fill="#EEEEEE"/>
<path d="M6.70985 7.71599C7.35892 7.71599 7.99339 7.52344 8.53299 7.16273C9.07258 6.80201 9.49305 6.28933 9.74117 5.68956C9.98929 5.0898 10.0539 4.42991 9.92687 3.7934C9.79983 3.15689 9.48682 2.57238 9.02746 2.11383C8.5681 1.65527 7.98304 1.34329 7.34631 1.21736C6.70958 1.09144 6.0498 1.15722 5.45048 1.4064C4.85115 1.65557 4.33921 2.07693 3.97944 2.61716C3.61966 3.15739 3.42824 3.7922 3.42937 4.44126C3.42937 4.87179 3.51427 5.29809 3.6792 5.69578C3.84413 6.09346 4.08586 6.45472 4.39055 6.75888C4.69525 7.06304 5.05693 7.30414 5.4549 7.46837C5.85288 7.6326 6.27933 7.71674 6.70985 7.71599ZM6.70985 2.02407C7.18793 2.02407 7.65527 2.16584 8.05277 2.43144C8.45028 2.69705 8.7601 3.07456 8.94305 3.51624C9.126 3.95793 9.17387 4.44395 9.0806 4.91284C8.98733 5.38173 8.75712 5.81243 8.41907 6.15048C8.08102 6.48853 7.65031 6.71875 7.18143 6.81201C6.71253 6.90528 6.22652 6.85741 5.78483 6.67446C5.34315 6.49151 4.96563 6.18169 4.70003 5.78419C4.43442 5.38668 4.29266 4.91934 4.29266 4.44126C4.29266 3.80018 4.54733 3.18536 5.00064 2.73205C5.45395 2.27874 6.06877 2.02407 6.70985 2.02407ZM10.1285 7.42247C9.75756 7.42172 9.39055 7.49807 9.05072 7.64668C8.7109 7.79529 8.40567 8.01292 8.15442 8.28575C7.67908 8.17344 7.19252 8.11552 6.7041 8.1131C3.9531 8.1131 1.57619 9.90297 1.17333 12.2856C1.16344 12.3412 1.16471 12.3982 1.17706 12.4533C1.18941 12.5084 1.21259 12.5605 1.24526 12.6066C1.27793 12.6527 1.31943 12.6918 1.36735 12.7216C1.41527 12.7515 1.46866 12.7715 1.5244 12.7806H1.59921C1.70055 12.7797 1.79841 12.7436 1.87609 12.6785C1.95377 12.6134 2.00644 12.5234 2.0251 12.4238C2.35315 10.4555 4.36748 8.97063 6.7041 8.97063C7.01673 8.97367 7.32857 9.00254 7.63645 9.05695C7.48825 9.39437 7.41182 9.7589 7.41199 10.1274C7.41199 10.6636 7.57097 11.1876 7.86883 11.6334C8.16669 12.0792 8.59004 12.4266 9.08536 12.6318C9.58068 12.837 10.1257 12.8906 10.6515 12.7861C11.1774 12.6815 11.6604 12.4233 12.0395 12.0442C12.4186 11.6651 12.6767 11.1821 12.7813 10.6563C12.8859 10.1304 12.8322 9.5854 12.6271 9.09008C12.4219 8.59477 12.0745 8.17141 11.6287 7.87355C11.1829 7.5757 10.6588 7.41672 10.1227 7.41672L10.1285 7.42247ZM10.1285 11.9806C9.76283 11.9817 9.40508 11.8744 9.10052 11.6721C8.79595 11.4698 8.55827 11.1816 8.41756 10.8442C8.27685 10.5067 8.23944 10.1351 8.31007 9.77631C8.38071 9.41756 8.5562 9.08785 8.81434 8.8289C9.07247 8.56996 9.40164 8.39344 9.76017 8.32169C10.1187 8.24993 10.4904 8.28618 10.8283 8.42584C11.1663 8.5655 11.4551 8.80228 11.6584 9.10621C11.8616 9.41014 11.9701 9.76755 11.9701 10.1332C11.9701 10.6222 11.7763 11.0912 11.4311 11.4375C11.0859 11.7838 10.6174 11.9791 10.1285 11.9806ZM11.2795 9.24112C11.3627 9.30982 11.4163 9.40792 11.4292 9.51507C11.442 9.62222 11.4132 9.7302 11.3486 9.81664L10.3817 11.054C10.3409 11.1052 10.2893 11.1467 10.2306 11.1755C10.1719 11.2044 10.1075 11.2199 10.0421 11.2209C9.97739 11.2207 9.91358 11.2055 9.85568 11.1766C9.79778 11.1476 9.74735 11.1057 9.70833 11.054L9.00619 10.162C8.94359 10.0743 8.91651 9.96626 8.93039 9.85948C8.94427 9.7527 8.99809 9.65514 9.08101 9.58644C9.16745 9.52183 9.27544 9.49296 9.38258 9.50582C9.48973 9.51868 9.58783 9.57227 9.65653 9.6555L10.0191 10.1217L10.6752 9.30443C10.7462 9.21673 10.8492 9.1608 10.9614 9.14893C11.0736 9.13706 11.186 9.17022 11.2737 9.24112H11.2795Z" fill="#EEEEEE"/>
</svg>
