<svg width="14" height="14" viewBox="0 0 14 14" fill="none" xmlns="http://www.w3.org/2000/svg">
<path fill-rule="evenodd" clip-rule="evenodd" d="M4.23652 1.90201C4.30628 1.24284 4.86399 0.729248 5.54167 0.729248H8.45833C9.13601 0.729248 9.69372 1.24284 9.76348 1.90201C10.2086 1.91108 10.5935 1.9341 10.9221 1.99447C11.3643 2.07569 11.7406 2.23041 12.0468 2.53662C12.3979 2.88774 12.5489 3.32983 12.6195 3.85489C12.6875 4.36062 12.6875 5.00365 12.6875 5.80141V9.36542C12.6875 10.1632 12.6875 10.8062 12.6195 11.3119C12.5489 11.837 12.3979 12.2791 12.0468 12.6302C11.6957 12.9813 11.2536 13.1324 10.7285 13.2029C10.2228 13.2709 9.57977 13.2709 8.78201 13.2709H5.21799C4.42023 13.2709 3.77721 13.2709 3.27148 13.2029C2.74642 13.1324 2.30432 12.9813 1.9532 12.6302C1.60209 12.2791 1.45107 11.837 1.38047 11.3119C1.31248 10.8062 1.31249 10.1632 1.3125 9.36543V5.8014C1.31249 5.00364 1.31248 4.36062 1.38047 3.85489C1.45107 3.32983 1.60209 2.88774 1.9532 2.53662C2.25941 2.23041 2.63571 2.07569 3.07787 1.99447C3.40651 1.9341 3.79139 1.91108 4.23652 1.90201ZM4.2379 2.77725C3.81896 2.7862 3.49613 2.80728 3.23595 2.85507C2.90531 2.9158 2.71394 3.01332 2.57192 3.15534C2.41048 3.31678 2.30522 3.54345 2.24767 3.97149C2.18843 4.41211 2.1875 4.99609 2.1875 5.83342V9.33342C2.1875 10.1707 2.18843 10.7547 2.24767 11.1953C2.30522 11.6234 2.41048 11.85 2.57192 12.0115C2.73337 12.1729 2.96004 12.2782 3.38807 12.3357C3.82869 12.395 4.41267 12.3959 5.25 12.3959H8.75C9.58733 12.3959 10.1713 12.395 10.6119 12.3357C11.04 12.2782 11.2666 12.1729 11.4281 12.0115C11.5895 11.85 11.6948 11.6234 11.7523 11.1953C11.8116 10.7547 11.8125 10.1707 11.8125 9.33342V5.83342C11.8125 4.99609 11.8116 4.41211 11.7523 3.97149C11.6948 3.54345 11.5895 3.31678 11.4281 3.15534C11.2861 3.01332 11.0947 2.9158 10.764 2.85507C10.5039 2.80728 10.181 2.7862 9.76211 2.77725C9.68669 3.43044 9.13174 3.93758 8.45833 3.93758H5.54167C4.86826 3.93758 4.31331 3.43044 4.2379 2.77725ZM5.54167 1.60425C5.30004 1.60425 5.10417 1.80012 5.10417 2.04175V2.62508C5.10417 2.86671 5.30004 3.06258 5.54167 3.06258H8.45833C8.69996 3.06258 8.89583 2.86671 8.89583 2.62508V2.04175C8.89583 1.80012 8.69996 1.60425 8.45833 1.60425H5.54167ZM3.64583 6.12508C3.64583 5.88346 3.84171 5.68758 4.08333 5.68758H9.91667C10.1583 5.68758 10.3542 5.88346 10.3542 6.12508C10.3542 6.36671 10.1583 6.56258 9.91667 6.56258H4.08333C3.84171 6.56258 3.64583 6.36671 3.64583 6.12508ZM4.22917 8.16675C4.22917 7.92512 4.42504 7.72925 4.66667 7.72925H9.33333C9.57496 7.72925 9.77083 7.92512 9.77083 8.16675C9.77083 8.40837 9.57496 8.60425 9.33333 8.60425H4.66667C4.42504 8.60425 4.22917 8.40837 4.22917 8.16675ZM4.8125 10.2084C4.8125 9.96679 5.00838 9.77092 5.25 9.77092H8.75C8.99162 9.77092 9.1875 9.96679 9.1875 10.2084C9.1875 10.45 8.99162 10.6459 8.75 10.6459H5.25C5.00838 10.6459 4.8125 10.45 4.8125 10.2084Z" fill="#EEEEEE"/>
</svg>
