<svg width="14" height="14" viewBox="0 0 14 14" fill="none" xmlns="http://www.w3.org/2000/svg">
<path opacity="0.1" d="M6.99951 0.787598C7.51154 0.787598 8.01504 0.922279 8.4585 1.17822L11.3101 2.82471C11.7543 3.0812 12.1233 3.45013 12.3804 3.89404C12.6374 4.33801 12.7736 4.84198 12.7749 5.35498V8.64795C12.7737 9.16099 12.6374 9.66487 12.3804 10.1089C12.1233 10.5529 11.7543 10.9217 11.3101 11.1782L8.4585 12.8247C8.01474 13.0798 7.51136 13.2137 6.99951 13.2124C6.48772 13.2145 5.98479 13.0805 5.5415 12.8247L2.68994 11.1782C2.24567 10.9217 1.87667 10.5529 1.61963 10.1089C1.3626 9.66487 1.22632 9.161 1.2251 8.64795V5.35498C1.22638 4.84198 1.36259 4.33801 1.61963 3.89404C1.87671 3.45013 2.24569 3.0812 2.68994 2.82471L5.5415 1.17822C5.98482 0.922361 6.48766 0.787683 6.99951 0.787598ZM7.91748 4.61865C7.47248 4.43434 6.98266 4.38601 6.51025 4.47998C6.03787 4.57396 5.60376 4.8064 5.26318 5.14697C4.92273 5.48753 4.69111 5.92175 4.59717 6.39404C4.50331 6.86627 4.55164 7.35546 4.73584 7.80029C4.92017 8.24531 5.23182 8.62644 5.63232 8.89404C6.03282 9.16163 6.50418 9.3042 6.98584 9.3042C7.6315 9.30411 8.25089 9.04779 8.70752 8.59131C9.16425 8.13458 9.42139 7.51456 9.42139 6.86865C9.42137 6.38708 9.27777 5.91655 9.01025 5.51611C8.74265 5.11561 8.36249 4.80298 7.91748 4.61865Z" fill="#EEEEEE"/>
<path d="M6.99585 0.729248C7.51283 0.729248 8.02079 0.865291 8.46851 1.12378L11.3464 2.78589C11.7949 3.04485 12.168 3.4168 12.4275 3.86499C12.6869 4.31313 12.8237 4.82178 12.825 5.3396V8.66382C12.8237 9.18165 12.6869 9.69026 12.4275 10.1384C12.168 10.5866 11.7949 10.9586 11.3464 11.2175L8.46851 12.8796C8.02056 13.1372 7.51254 13.2726 6.99585 13.2712C6.47905 13.2735 5.97079 13.138 5.52319 12.8796L2.64526 11.2175C2.1969 10.9586 1.82463 10.5865 1.56519 10.1384C1.30569 9.69021 1.16799 9.18173 1.16675 8.66382V5.3396C1.16803 4.82177 1.30573 4.31314 1.56519 3.86499C1.82465 3.41698 2.19692 3.04478 2.64526 2.78589L5.52319 1.12378C5.9709 0.865296 6.47888 0.729252 6.99585 0.729248ZM6.99585 1.66187C6.63977 1.65892 6.28907 1.75149 5.9812 1.93042L3.10327 3.57983C2.79836 3.7609 2.5465 4.01926 2.37183 4.32788C2.19724 4.63644 2.10643 4.98508 2.10815 5.3396V8.66382C2.10639 9.0185 2.19713 9.36784 2.37183 9.67651C2.54647 9.98494 2.79853 10.2426 3.10327 10.4236L5.9812 12.0857C6.28978 12.2631 6.63989 12.3562 6.99585 12.3562C7.35182 12.3562 7.70191 12.2631 8.0105 12.0857L10.8884 10.4236C11.1932 10.2426 11.4452 9.98494 11.6199 9.67651C11.7946 9.36784 11.8853 9.0185 11.8835 8.66382V5.3396C11.8853 4.98507 11.7945 4.63644 11.6199 4.32788C11.4452 4.01925 11.1934 3.7609 10.8884 3.57983L8.0105 1.91772C7.70262 1.73879 7.35194 1.64622 6.99585 1.64917V1.66187ZM6.5105 4.42261C6.99383 4.32657 7.49466 4.37666 7.94995 4.56519C8.40548 4.75387 8.79516 5.07319 9.06909 5.48315C9.34298 5.89308 9.48899 6.37492 9.48901 6.86792C9.48901 7.52896 9.22686 8.16312 8.75952 8.63062C8.29211 9.09803 7.65784 9.36096 6.99683 9.36108C6.50377 9.36108 6.02105 9.21509 5.61108 8.94116C5.20114 8.66723 4.88179 8.27753 4.69312 7.82202C4.50445 7.36651 4.45533 6.86516 4.55151 6.38159C4.6477 5.89815 4.88465 5.45381 5.23315 5.10522C5.5818 4.75658 6.02691 4.5188 6.5105 4.42261ZM6.99683 5.29175C6.6851 5.29175 6.38006 5.38422 6.12085 5.55737C5.86168 5.73054 5.65912 5.97646 5.53979 6.2644C5.42049 6.55243 5.38915 6.86977 5.44995 7.17554C5.51078 7.48133 5.66112 7.76269 5.88159 7.98315C6.10203 8.20353 6.38349 8.35301 6.68921 8.41382C6.99477 8.47454 7.31151 8.44409 7.59937 8.32495C7.88742 8.20563 8.13415 8.00314 8.30737 7.7439C8.48056 7.48467 8.573 7.17967 8.573 6.86792C8.57136 6.45036 8.40439 6.0499 8.10913 5.75464C7.81398 5.45966 7.41411 5.29347 6.99683 5.29175Z" fill="#EEEEEE"/>
</svg>
