<svg width="14" height="14" viewBox="0 0 14 14" fill="none" xmlns="http://www.w3.org/2000/svg">
<path opacity="0.1" d="M12.8882 3.49884V10.5595C12.864 11.2931 12.55 11.9872 12.015 12.4898C11.48 12.9923 10.7676 13.2622 10.0339 13.2404H7.46847C6.73421 13.2622 6.02117 12.9925 5.48523 12.4901C4.94928 11.9877 4.63404 11.2936 4.6084 10.5595V3.49884C4.63404 2.7647 4.94928 2.07057 5.48523 1.56819C6.02117 1.06581 6.73421 0.796051 7.46847 0.817879H10.0339C10.7676 0.796073 11.48 1.06601 12.015 1.56855C12.55 2.07108 12.864 2.76521 12.8882 3.49884Z" fill="#EEEEEE"/>
<path d="M8.73242 7.31486L6.98242 9.06486C6.8984 9.14751 6.78527 9.19383 6.66742 9.19383C6.54956 9.19383 6.43643 9.14751 6.35242 9.06486C6.3108 9.02363 6.27775 8.97457 6.25521 8.92051C6.23266 8.86644 6.22105 8.80844 6.22105 8.74986C6.22105 8.69128 6.23266 8.63328 6.25521 8.57921C6.27775 8.52514 6.3108 8.47608 6.35242 8.43486L7.32659 7.46069H1.46409C1.40587 7.46069 1.34822 7.44922 1.29443 7.42694C1.24064 7.40466 1.19177 7.37201 1.1506 7.33084C1.10943 7.28967 1.07678 7.2408 1.0545 7.18701C1.03222 7.13323 1.02075 7.07558 1.02075 7.01736C1.02075 6.95914 1.03222 6.90149 1.0545 6.8477C1.07678 6.79391 1.10943 6.74504 1.1506 6.70387C1.19177 6.66271 1.24064 6.63005 1.29443 6.60777C1.34822 6.58549 1.40587 6.57402 1.46409 6.57402H7.34409L6.36992 5.58236C6.28638 5.49881 6.23944 5.3855 6.23944 5.26736C6.23944 5.14921 6.28638 5.0359 6.36992 4.95236C6.45346 4.86881 6.56677 4.82188 6.68492 4.82188C6.80307 4.82188 6.91638 4.86881 6.99992 4.95236L8.74992 6.70236C8.82641 6.78707 8.86728 6.89803 8.86402 7.01212C8.86076 7.12621 8.81362 7.23465 8.73242 7.31486ZM12.9791 10.564V3.43569C12.9547 2.69503 12.6377 1.99424 12.0976 1.48689C11.5574 0.979537 10.8382 0.707008 10.0974 0.729024H7.50742C6.76611 0.706986 6.04624 0.979334 5.50516 1.48653C4.96407 1.99372 4.6458 2.69451 4.61992 3.43569C4.62143 3.55435 4.66924 3.66772 4.75315 3.75163C4.83706 3.83554 4.95043 3.88335 5.06909 3.88486C5.1872 3.88332 5.29995 3.83532 5.38293 3.75125C5.46591 3.66718 5.51243 3.55381 5.51242 3.43569C5.53662 2.93015 5.76014 2.45479 6.13405 2.11368C6.50796 1.77257 7.00178 1.59351 7.50742 1.61569H10.0974C10.6031 1.59351 11.0969 1.77257 11.4708 2.11368C11.8447 2.45479 12.0682 2.93015 12.0924 3.43569V10.564C12.0682 11.0696 11.8447 11.5449 11.4708 11.886C11.0969 12.2271 10.6031 12.4062 10.0974 12.384H7.50742C7.00178 12.4062 6.50796 12.2271 6.13405 11.886C5.76014 11.5449 5.53662 11.0696 5.51242 10.564C5.51243 10.4459 5.46591 10.3325 5.38293 10.2485C5.29995 10.1644 5.1872 10.1164 5.06909 10.1149C4.95043 10.1164 4.83706 10.1642 4.75315 10.2481C4.66924 10.332 4.62143 10.4454 4.61992 10.564C4.6458 11.3052 4.96407 12.006 5.50516 12.5132C6.04624 13.0204 6.76611 13.2927 7.50742 13.2707H10.0974C10.8382 13.2927 11.5574 13.0202 12.0976 12.5128C12.6377 12.0055 12.9547 11.3047 12.9791 10.564Z" fill="#EEEEEE"/>
</svg>
