<svg width="14" height="14" viewBox="0 0 14 14" fill="none" xmlns="http://www.w3.org/2000/svg">
<path fill-rule="evenodd" clip-rule="evenodd" d="M13.2709 2.8778C13.2709 2.0242 12.5911 1.29215 11.6993 1.32322C11.0353 1.34635 10.1673 1.41543 9.49961 1.61532C8.91917 1.78909 8.26629 2.1285 7.75734 2.42305C7.28013 2.69924 6.68605 2.71301 6.20257 2.45736C5.62188 2.1503 4.85788 1.78634 4.19504 1.61142C3.63457 1.46353 2.9256 1.39249 2.34999 1.35711C1.44101 1.30125 0.729248 2.04098 0.729248 2.91549V9.41719C0.729248 10.3133 1.45479 11.0129 2.31477 11.0667C2.87405 11.1017 3.50338 11.169 3.97179 11.2926C4.55078 11.4454 5.26677 11.7851 5.84486 12.0932C6.56429 12.4767 7.43588 12.4767 8.1553 12.0932C8.7334 11.7851 9.44938 11.4454 10.0284 11.2926C10.4968 11.169 11.1261 11.1017 11.6854 11.0667C12.5454 11.0129 13.2709 10.3133 13.2709 9.41719V2.8778ZM11.7298 2.19769C12.0884 2.1852 12.3959 2.4802 12.3959 2.8778V9.41719C12.3959 9.81721 12.0644 10.1663 11.6308 10.1934C11.0591 10.2292 10.3595 10.3002 9.80512 10.4465C9.12242 10.6267 8.33168 11.0077 7.74371 11.3211C7.64557 11.3734 7.54288 11.4146 7.43758 11.4447V3.46629C7.70143 3.41347 7.95797 3.31791 8.19563 3.18036C8.69173 2.89325 9.27209 2.5968 9.75056 2.45357C10.3042 2.28781 11.0771 2.22042 11.7298 2.19769ZM6.56258 3.48551C6.29716 3.44423 6.03699 3.3596 5.79355 3.23088C5.22375 2.92958 4.53302 2.60556 3.97179 2.45746C3.498 2.33244 2.8598 2.2651 2.29631 2.23046C1.9265 2.20773 1.60425 2.5088 1.60425 2.91549V9.41719C1.60425 9.81721 1.93576 10.1663 2.36939 10.1934C2.94111 10.2292 3.64062 10.3002 4.19504 10.4465C4.87774 10.6267 5.66849 11.0077 6.25646 11.3211C6.3546 11.3734 6.45728 11.4146 6.56258 11.4447V3.48551Z" fill="white"/>
</svg>
