<svg width="14" height="14" viewBox="0 0 14 14" fill="none" xmlns="http://www.w3.org/2000/svg">
<path fill-rule="evenodd" clip-rule="evenodd" d="M1.89575 5.917C1.89575 3.05924 4.17368 0.729248 6.99992 0.729248C9.82616 0.729248 12.1041 3.05924 12.1041 5.917C12.1041 7.29665 11.7109 8.77803 11.0158 10.0578C10.3216 11.3361 9.30737 12.4468 8.03855 13.0399C7.37942 13.3479 6.62042 13.3479 5.96129 13.0399C4.69247 12.4468 3.6782 11.3361 2.98399 10.0578C2.28894 8.77803 1.89575 7.29665 1.89575 5.917ZM6.99992 1.60425C4.6715 1.60425 2.77075 3.52778 2.77075 5.917C2.77075 7.1403 3.12229 8.47907 3.75291 9.64024C4.38439 10.803 5.27676 11.754 6.33179 12.2472C6.75612 12.4455 7.24372 12.4455 7.66804 12.2472C8.72307 11.754 9.61544 10.803 10.2469 9.64024C10.8775 8.47907 11.2291 7.1403 11.2291 5.917C11.2291 3.52778 9.32833 1.60425 6.99992 1.60425ZM6.99992 4.52091C6.27504 4.52091 5.68742 5.10854 5.68742 5.83342C5.68742 6.55829 6.27504 7.14592 6.99992 7.14592C7.72479 7.14592 8.31242 6.55829 8.31242 5.83342C8.31242 5.10854 7.72479 4.52091 6.99992 4.52091ZM4.81242 5.83342C4.81242 4.62529 5.7918 3.64591 6.99992 3.64591C8.20804 3.64591 9.18742 4.62529 9.18742 5.83342C9.18742 7.04154 8.20804 8.02092 6.99992 8.02092C5.7918 8.02092 4.81242 7.04154 4.81242 5.83342Z" fill="white"/>
</svg>
