<svg width="14" height="14" viewBox="0 0 14 14" fill="none" xmlns="http://www.w3.org/2000/svg">
<path opacity="0.1" d="M11.6141 12.9791H7.28575C6.92319 12.9791 6.5754 12.8355 6.31848 12.5796C6.06157 12.3238 5.91646 11.9766 5.91492 11.6141V10.9549C5.91646 10.5924 6.06157 10.2452 6.31848 9.98936C6.5754 9.73354 6.92319 9.58992 7.28575 9.58992H11.6141C11.9761 9.58992 12.3233 9.73373 12.5793 9.98972C12.8353 10.2457 12.9791 10.5929 12.9791 10.9549V11.6141C12.9791 11.9761 12.8353 12.3233 12.5793 12.5793C12.3233 12.8353 11.9761 12.9791 11.6141 12.9791ZM11.6141 8.74992H7.27992C6.9179 8.74992 6.5707 8.60611 6.31472 8.35012C6.05873 8.09413 5.91492 7.74694 5.91492 7.38492V6.73742C5.91646 6.37641 6.06095 6.03071 6.31677 5.77599C6.57259 5.52126 6.91891 5.37825 7.27992 5.37825H11.6141C11.9751 5.37825 12.3214 5.52126 12.5772 5.77599C12.833 6.03071 12.9775 6.37641 12.9791 6.73742V7.38492C12.9791 7.74694 12.8353 8.09413 12.5793 8.35012C12.3233 8.60611 11.9761 8.74992 11.6141 8.74992ZM11.5791 4.50325H2.42075C2.04891 4.50171 1.69283 4.35291 1.43045 4.08944C1.16806 3.82596 1.02075 3.46926 1.02075 3.09742V2.42075C1.02229 2.04992 1.17028 1.69472 1.4325 1.4325C1.69472 1.17028 2.04992 1.02229 2.42075 1.02075H11.5791C11.9499 1.02229 12.3051 1.17028 12.5673 1.4325C12.8296 1.69472 12.9775 2.04992 12.9791 2.42075V3.10909C12.9791 3.48093 12.8318 3.83762 12.5694 4.1011C12.307 4.36458 11.9509 4.51338 11.5791 4.51492V4.50325ZM3.67492 12.9791H2.40909C2.04135 12.9775 1.68911 12.8308 1.42908 12.5708C1.16905 12.3107 1.02229 11.9585 1.02075 11.5908V6.76659C1.02229 6.39885 1.16905 6.04661 1.42908 5.78658C1.68911 5.52655 2.04135 5.37979 2.40909 5.37825H3.67492C4.04313 5.37825 4.39626 5.52452 4.65662 5.78488C4.91698 6.04525 5.06325 6.39838 5.06325 6.76659V11.5908C5.06325 11.7731 5.02734 11.9536 4.95757 12.122C4.8878 12.2905 4.78554 12.4435 4.65662 12.5725C4.5277 12.7014 4.37465 12.8036 4.20621 12.8734C4.03777 12.9432 3.85724 12.9791 3.67492 12.9791Z" fill="#EEEEEE"/>
<path d="M11.6141 12.9791H7.28575C6.92319 12.9791 6.5754 12.8355 6.31848 12.5796C6.06157 12.3238 5.91646 11.9766 5.91492 11.6141V10.9549C5.91646 10.5924 6.06157 10.2452 6.31848 9.98936C6.5754 9.73354 6.92319 9.58992 7.28575 9.58992H11.6141C11.9761 9.58992 12.3233 9.73373 12.5793 9.98972C12.8353 10.2457 12.9791 10.5929 12.9791 10.9549V11.6141C12.9791 11.9761 12.8353 12.3233 12.5793 12.5793C12.3233 12.8353 11.9761 12.9791 11.6141 12.9791ZM7.28575 10.4649C7.15525 10.4649 7.03001 10.5163 6.93719 10.6081C6.84437 10.6998 6.79145 10.8244 6.78992 10.9549V11.6141C6.79145 11.7446 6.84437 11.8692 6.93719 11.9609C7.03001 12.0527 7.15525 12.1041 7.28575 12.1041H11.6141C11.7436 12.1026 11.8673 12.0505 11.9589 11.9589C12.0505 11.8673 12.1026 11.7436 12.1041 11.6141V10.9549C12.1026 10.8254 12.0505 10.7017 11.9589 10.6101C11.8673 10.5185 11.7436 10.4664 11.6141 10.4649H7.28575ZM11.6141 8.74992H7.27992C6.9179 8.74992 6.5707 8.60611 6.31472 8.35012C6.05873 8.09413 5.91492 7.74694 5.91492 7.38492V6.73742C5.91646 6.37641 6.06095 6.03071 6.31677 5.77599C6.57259 5.52126 6.91891 5.37825 7.27992 5.37825H11.6141C11.9751 5.37825 12.3214 5.52126 12.5772 5.77599C12.833 6.03071 12.9775 6.37641 12.9791 6.73742V7.38492C12.9791 7.74694 12.8353 8.09413 12.5793 8.35012C12.3233 8.60611 11.9761 8.74992 11.6141 8.74992ZM7.27992 6.25325C7.15097 6.25324 7.02721 6.30407 6.93548 6.3947C6.84376 6.48534 6.79145 6.60848 6.78992 6.73742V7.38492C6.79143 7.5144 6.84354 7.63816 6.93511 7.72973C7.02668 7.82129 7.15043 7.8734 7.27992 7.87492H11.6141C11.744 7.87492 11.8687 7.82329 11.9606 7.7314C12.0525 7.63951 12.1041 7.51487 12.1041 7.38492V6.73742C12.1041 6.67334 12.0914 6.6099 12.0667 6.55078C12.042 6.49165 12.0058 6.43802 11.9602 6.39298C11.9146 6.34795 11.8606 6.3124 11.8012 6.28842C11.7417 6.26443 11.6782 6.25248 11.6141 6.25325H7.27992ZM11.5791 4.50325H2.42075C2.04891 4.50171 1.69283 4.35291 1.43045 4.08944C1.16806 3.82596 1.02075 3.46926 1.02075 3.09742V2.42075C1.02229 2.04992 1.17028 1.69472 1.4325 1.4325C1.69472 1.17028 2.04992 1.02229 2.42075 1.02075H11.5791C11.9499 1.02229 12.3051 1.17028 12.5673 1.4325C12.8296 1.69472 12.9775 2.04992 12.9791 2.42075V3.10909C12.9791 3.48093 12.8318 3.83762 12.5694 4.1011C12.307 4.36458 11.9509 4.51338 11.5791 4.51492V4.50325ZM2.42075 1.89575C2.28198 1.89727 2.14933 1.95307 2.0512 2.0512C1.95307 2.14933 1.89727 2.28198 1.89575 2.42075V3.10909C1.89574 3.24887 1.95087 3.38301 2.04916 3.48239C2.14745 3.58178 2.28098 3.63838 2.42075 3.63992H11.5791C11.7189 3.63838 11.8524 3.58178 11.9507 3.48239C12.049 3.38301 12.1041 3.24887 12.1041 3.10909V2.42075C12.1026 2.28198 12.0468 2.14933 11.9486 2.0512C11.8505 1.95307 11.7179 1.89727 11.5791 1.89575H2.42075ZM3.67492 12.9791H2.40909C2.04135 12.9775 1.68911 12.8308 1.42908 12.5708C1.16905 12.3107 1.02229 11.9585 1.02075 11.5908V6.76659C1.02229 6.39885 1.16905 6.04661 1.42908 5.78658C1.68911 5.52655 2.04135 5.37979 2.40909 5.37825H3.67492C4.04313 5.37825 4.39626 5.52452 4.65662 5.78488C4.91698 6.04525 5.06325 6.39838 5.06325 6.76659V11.5908C5.06325 11.7731 5.02734 11.9536 4.95757 12.122C4.8878 12.2905 4.78554 12.4435 4.65662 12.5725C4.5277 12.7014 4.37465 12.8036 4.20621 12.8734C4.03777 12.9432 3.85724 12.9791 3.67492 12.9791ZM2.40909 6.25325C2.34146 6.25247 2.27435 6.26521 2.21172 6.29073C2.14909 6.31626 2.09219 6.35404 2.04436 6.40186C1.99654 6.44969 1.95875 6.50659 1.93323 6.56922C1.90771 6.63185 1.89497 6.69896 1.89575 6.76659V11.5908C1.89497 11.6584 1.90771 11.7255 1.93323 11.7881C1.95875 11.8508 1.99654 11.9077 2.04436 11.9555C2.09219 12.0033 2.14909 12.0411 2.21172 12.0666C2.27435 12.0921 2.34146 12.1049 2.40909 12.1041H3.67492C3.74255 12.1049 3.80965 12.0921 3.87228 12.0666C3.93492 12.0411 3.99182 12.0033 4.03964 11.9555C4.08747 11.9077 4.12525 11.8508 4.15077 11.7881C4.17629 11.7255 4.18903 11.6584 4.18825 11.5908V6.76659C4.18903 6.69896 4.17629 6.63185 4.15077 6.56922C4.12525 6.50659 4.08747 6.44969 4.03964 6.40186C3.99182 6.35404 3.93492 6.31626 3.87228 6.29073C3.80965 6.26521 3.74255 6.25247 3.67492 6.25325H2.40909Z" fill="#EEEEEE"/>
</svg>
