<svg width="30" height="30" viewBox="0 0 30 30" fill="none" xmlns="http://www.w3.org/2000/svg">
<path fill-rule="evenodd" clip-rule="evenodd" d="M3.08709 26.9129C2.72097 26.5468 2.72097 25.9532 3.08709 25.5871L12.7367 15.9375H8.32031C7.80255 15.9375 7.38281 15.5178 7.38281 15C7.38281 14.4822 7.80255 14.0625 8.32031 14.0625H15C15.5178 14.0625 15.9375 14.4822 15.9375 15V21.6797C15.9375 22.1975 15.5178 22.6172 15 22.6172C14.4822 22.6172 14.0625 22.1975 14.0625 21.6797V17.2633L4.41291 26.9129C4.0468 27.279 3.4532 27.279 3.08709 26.9129Z" fill="white"/>
<path d="M4.39785 21.6247L8.21207 17.8105C6.70893 17.7536 5.50781 16.5171 5.50781 15C5.50781 13.4467 6.76701 12.1875 8.32031 12.1875H15C16.5533 12.1875 17.8125 13.4467 17.8125 15V21.6797C17.8125 23.233 16.5533 24.4922 15 24.4922C13.4829 24.4922 12.2464 23.2911 12.1895 21.7879L8.37533 25.6021C10.296 26.8048 12.5668 27.5 15 27.5C21.9036 27.5 27.5 21.9036 27.5 15C27.5 8.09644 21.9036 2.5 15 2.5C8.09644 2.5 2.5 8.09644 2.5 15C2.5 17.4332 3.19522 19.704 4.39785 21.6247Z" fill="white"/>
</svg>
