<svg width="22" height="21" viewBox="0 0 22 21" fill="none" xmlns="http://www.w3.org/2000/svg">
<path fill-rule="evenodd" clip-rule="evenodd" d="M19.9129 3.88886C20.25 4.39331 20.25 5.09554 20.25 6.5V19.25H20.75C21.1642 19.25 21.5 19.5858 21.5 20C21.5 20.4142 21.1642 20.75 20.75 20.75H0.75C0.335786 20.75 0 20.4142 0 20C0 19.5858 0.335786 19.25 0.75 19.25H1.25V6.5C1.25 5.09554 1.25 4.39331 1.58706 3.88886C1.73298 3.67048 1.92048 3.48298 2.13886 3.33706C2.58008 3.04224 3.17262 3.00529 4.25403 3.00066C4.24992 3.29206 4.24996 3.59655 4.24999 3.9105L4.25 4V5.25H3.25C2.83579 5.25 2.5 5.58579 2.5 6C2.5 6.41421 2.83579 6.75 3.25 6.75H4.25V8.25H3.25C2.83579 8.25 2.5 8.58579 2.5 9C2.5 9.41421 2.83579 9.75 3.25 9.75H4.25V11.25H3.25C2.83579 11.25 2.5 11.5858 2.5 12C2.5 12.4142 2.83579 12.75 3.25 12.75H4.25V19.25H5.75V4C5.75 2.11438 5.75 1.17157 6.33579 0.585786C6.92157 0 7.86438 0 9.75 0H11.75C13.6356 0 14.5784 0 15.1642 0.585786C15.75 1.17157 15.75 2.11438 15.75 4V19.25H17.25V12.75H18.25C18.6642 12.75 19 12.4142 19 12C19 11.5858 18.6642 11.25 18.25 11.25H17.25V9.75H18.25C18.6642 9.75 19 9.41421 19 9C19 8.58579 18.6642 8.25 18.25 8.25H17.25V6.75H18.25C18.6642 6.75 19 6.41421 19 6C19 5.58579 18.6642 5.25 18.25 5.25H17.25V4L17.25 3.91051C17.25 3.59655 17.2501 3.29206 17.246 3.00066C18.3274 3.00529 18.9199 3.04224 19.3611 3.33706C19.5795 3.48298 19.767 3.67048 19.9129 3.88886ZM11.5 17C11.5 16.5858 11.1642 16.25 10.75 16.25C10.3358 16.25 10 16.5858 10 17V19.25H11.5V17ZM8 13C8 12.5858 8.33579 12.25 8.75 12.25H12.75C13.1642 12.25 13.5 12.5858 13.5 13C13.5 13.4142 13.1642 13.75 12.75 13.75H8.75C8.33579 13.75 8 13.4142 8 13ZM8.75 9.25C8.33579 9.25 8 9.58579 8 10C8 10.4142 8.33579 10.75 8.75 10.75H12.75C13.1642 10.75 13.5 10.4142 13.5 10C13.5 9.58579 13.1642 9.25 12.75 9.25H8.75ZM8.25 5C8.25 3.48122 9.48122 2.25 11 2.25C12.5188 2.25 13.75 3.48122 13.75 5C13.75 6.51878 12.5188 7.75 11 7.75C9.48122 7.75 8.25 6.51878 8.25 5ZM9.75 5C9.75 4.30964 10.3096 3.75 11 3.75C11.6904 3.75 12.25 4.30964 12.25 5C12.25 5.69036 11.6904 6.25 11 6.25C10.3096 6.25 9.75 5.69036 9.75 5Z" fill="white"/>
</svg>
