<svg width="10" height="7" viewBox="0 0 10 7" fill="none" xmlns="http://www.w3.org/2000/svg">
<path d="M8.49332 0.233412L4.03999 4.68675L1.45332 2.10008C1.32841 1.97591 1.15944 1.90622 0.98332 1.90622C0.807196 1.90622 0.638228 1.97591 0.51332 2.10008C0.389152 2.22499 0.319458 2.39395 0.319458 2.57008C0.319458 2.7462 0.389152 2.91517 0.51332 3.04008L3.57332 6.10008C3.69823 6.22425 3.8672 6.29394 4.04332 6.29394C4.21944 6.29394 4.38841 6.22425 4.51332 6.10008L9.43332 1.18008C9.4958 1.1181 9.5454 1.04437 9.57925 0.96313C9.61309 0.881891 9.63052 0.794754 9.63052 0.706746C9.63052 0.618738 9.61309 0.531601 9.57925 0.450362C9.5454 0.369122 9.4958 0.295388 9.43332 0.233412C9.30841 0.109245 9.13944 0.0395508 8.96332 0.0395508C8.7872 0.0395508 8.61823 0.109245 8.49332 0.233412Z" fill="white"/>
</svg>
