<svg width="14" height="14" viewBox="0 0 14 14" fill="none" xmlns="http://www.w3.org/2000/svg">
<g clip-path="url(#clip0_74_6875)">
<path opacity="0.1" d="M6.97064 0.612549C5.71308 0.612549 4.48376 0.985458 3.43814 1.68412C2.39252 2.38278 1.57755 3.37582 1.09631 4.53765C0.61506 5.69949 0.489143 6.97793 0.734481 8.21133C0.979819 9.44473 1.58539 10.5777 2.47462 11.4669C3.36385 12.3561 4.49679 12.9617 5.73019 13.207C6.96358 13.4524 8.24203 13.3265 9.40387 12.8452C10.5657 12.364 11.5587 11.549 12.2574 10.5034C12.9561 9.45776 13.329 8.22844 13.329 6.97088C13.3274 5.28503 12.657 3.66867 11.4649 2.47659C10.2729 1.28451 8.65649 0.614115 6.97064 0.612549Z" fill="#BCBFC5"/>
<path d="M6.99968 1.41891C8.10349 1.41891 9.18253 1.74623 10.1003 2.35948C11.0181 2.97273 11.7334 3.84436 12.1559 4.86416C12.5783 5.88395 12.6888 7.00611 12.4734 8.08872C12.2581 9.17133 11.7266 10.1658 10.946 10.9463C10.1655 11.7268 9.17109 12.2583 8.08848 12.4737C7.00587 12.689 5.88371 12.5785 4.86392 12.1561C3.84412 11.7337 2.97249 11.0184 2.35924 10.1006C1.74599 9.18277 1.41867 8.10374 1.41867 6.99992C1.41867 5.51974 2.00667 4.10019 3.05331 3.05355C4.09995 2.00691 5.5195 1.41891 6.99968 1.41891ZM6.99968 6.1941L5.42386 4.61232C5.31349 4.50996 5.16851 4.45308 5.01797 4.45308C4.86743 4.45308 4.72246 4.50996 4.61208 4.61232C4.50971 4.7227 4.45283 4.86768 4.45283 5.01821C4.45283 5.16875 4.50971 5.31373 4.61208 5.4241L6.21177 6.99992L4.61208 8.57573C4.50971 8.68611 4.45283 8.83108 4.45283 8.98162C4.45283 9.13216 4.50971 9.27714 4.61208 9.38751C4.72139 9.48485 4.86265 9.53862 5.00902 9.53862C5.15538 9.53862 5.29664 9.48485 5.40596 9.38751L6.99968 7.78782L8.57549 9.38751C8.68587 9.48988 8.83084 9.54676 8.98138 9.54676C9.13192 9.54676 9.2769 9.48988 9.38727 9.38751C9.4846 9.2782 9.53838 9.13694 9.53838 8.99058C9.53838 8.84421 9.4846 8.70295 9.38727 8.59364L7.78758 6.99992L9.38727 5.4241C9.48964 5.31373 9.54652 5.16875 9.54652 5.01821C9.54652 4.86768 9.48964 4.7227 9.38727 4.61232C9.27796 4.51499 9.1367 4.46121 8.99033 4.46121C8.84397 4.46121 8.70271 4.51499 8.5934 4.61232L6.99968 6.21201M6.99968 0.583252C5.73058 0.583252 4.48998 0.959583 3.43477 1.66466C2.37955 2.36973 1.55711 3.37187 1.07145 4.54437C0.585788 5.71686 0.458717 7.00704 0.706305 8.25175C0.953894 9.49646 1.56502 10.6398 2.46241 11.5372C3.3598 12.4346 4.50314 13.0457 5.74785 13.2933C6.99256 13.5409 8.28274 13.4138 9.45523 12.9281C10.6277 12.4425 11.6299 11.62 12.3349 10.5648C13.04 9.50961 13.4163 8.26901 13.4163 6.99992C13.4148 5.2986 12.7382 3.66741 11.5352 2.4644C10.3322 1.26138 8.701 0.584832 6.99968 0.583252Z" fill="#BCBFC5"/>
</g>
<defs>
<clipPath id="clip0_74_6875">
<rect width="14" height="14" fill="white"/>
</clipPath>
</defs>
</svg>
