<svg width="30" height="30" viewBox="0 0 30 30" fill="none" xmlns="http://www.w3.org/2000/svg">
<path fill-rule="evenodd" clip-rule="evenodd" d="M11.9905 4.00034C11.6861 4.25975 11.5339 4.38947 11.3713 4.49842C10.9987 4.74818 10.5802 4.92152 10.1401 5.0084C9.94814 5.04631 9.74879 5.06222 9.3501 5.09403C8.34837 5.17397 7.8475 5.21394 7.42963 5.36154C6.46314 5.70291 5.70291 6.46314 5.36154 7.42963C5.21394 7.8475 5.17397 8.34837 5.09403 9.3501C5.06222 9.74879 5.04631 9.94814 5.0084 10.1401C4.92152 10.5802 4.74818 10.9987 4.49842 11.3713C4.38947 11.5339 4.25976 11.6861 4.00034 11.9905C3.34854 12.7554 3.02263 13.1378 2.83152 13.5376C2.38949 14.4624 2.38949 15.5376 2.83152 16.4624C3.02263 16.8622 3.34853 17.2446 4.00034 18.0095C4.25973 18.3139 4.38948 18.4661 4.49842 18.6287C4.74818 19.0013 4.92152 19.4198 5.0084 19.8599C5.04631 20.0519 5.06222 20.2512 5.09403 20.6499C5.17397 21.6516 5.21394 22.1525 5.36154 22.5704C5.70291 23.5369 6.46314 24.2971 7.42963 24.6385C7.8475 24.7861 8.34837 24.826 9.3501 24.906C9.74879 24.9378 9.94814 24.9537 10.1401 24.9916C10.5802 25.0785 10.9987 25.2518 11.3713 25.5016C11.5339 25.6105 11.6861 25.7402 11.9905 25.9997C12.7554 26.6515 13.1378 26.9774 13.5376 27.1685C14.4624 27.6105 15.5376 27.6105 16.4624 27.1685C16.8622 26.9774 17.2446 26.6515 18.0095 25.9997C18.3139 25.7402 18.4661 25.6105 18.6287 25.5016C19.0013 25.2518 19.4198 25.0785 19.8599 24.9916C20.0519 24.9537 20.2512 24.9378 20.6499 24.906C21.6516 24.826 22.1525 24.7861 22.5704 24.6385C23.5369 24.2971 24.2971 23.5369 24.6385 22.5704C24.7861 22.1525 24.826 21.6516 24.906 20.6499C24.9378 20.2512 24.9537 20.0519 24.9916 19.8599C25.0785 19.4198 25.2518 19.0013 25.5016 18.6287C25.6105 18.4661 25.7402 18.3139 25.9997 18.0095C26.6515 17.2446 26.9774 16.8622 27.1685 16.4624C27.6105 15.5376 27.6105 14.4624 27.1685 13.5376C26.9774 13.1378 26.6515 12.7554 25.9997 11.9905C25.7402 11.6861 25.6105 11.5339 25.5016 11.3713C25.2518 10.9987 25.0785 10.5802 24.9916 10.1401C24.9537 9.94814 24.9378 9.74879 24.906 9.3501C24.826 8.34837 24.7861 7.8475 24.6385 7.42963C24.2971 6.46314 23.5369 5.70291 22.5704 5.36154C22.1525 5.21394 21.6516 5.17397 20.6499 5.09403C20.2512 5.06222 20.0519 5.04631 19.8599 5.0084C19.4198 4.92152 19.0013 4.74818 18.6287 4.49842C18.4661 4.38947 18.3139 4.25976 18.0095 4.00034C17.2446 3.34853 16.8622 3.02263 16.4624 2.83152C15.5376 2.38949 14.4624 2.38949 13.5376 2.83152C13.1378 3.02263 12.7554 3.34854 11.9905 4.00034ZM20.4669 12.3289C20.8641 11.9316 20.8641 11.2875 20.4669 10.8902C20.0696 10.4929 19.4254 10.4929 19.0281 10.8902L12.9653 16.953L10.9718 14.9595C10.5745 14.5622 9.9304 14.5622 9.53311 14.9595C9.13582 15.3568 9.13582 16.0009 9.53311 16.3982L12.246 19.1111C12.6433 19.5084 13.2874 19.5084 13.6847 19.1111L20.4669 12.3289Z" fill="white"/>
</svg>
