<svg width="28" height="28" viewBox="0 0 28 28" fill="none" xmlns="http://www.w3.org/2000/svg">
<path d="M19.833 16.3334C20.4773 16.3334 20.9997 15.8111 20.9997 15.1667C20.9997 14.5224 20.4773 14.0001 19.833 14.0001C19.1887 14.0001 18.6663 14.5224 18.6663 15.1667C18.6663 15.8111 19.1887 16.3334 19.833 16.3334Z" fill="#8E9198"/>
<path d="M19.833 21.0001C20.4773 21.0001 20.9997 20.4777 20.9997 19.8334C20.9997 19.1891 20.4773 18.6667 19.833 18.6667C19.1887 18.6667 18.6663 19.1891 18.6663 19.8334C18.6663 20.4777 19.1887 21.0001 19.833 21.0001Z" fill="#8E9198"/>
<path d="M15.1663 15.1667C15.1663 15.8111 14.644 16.3334 13.9997 16.3334C13.3553 16.3334 12.833 15.8111 12.833 15.1667C12.833 14.5224 13.3553 14.0001 13.9997 14.0001C14.644 14.0001 15.1663 14.5224 15.1663 15.1667Z" fill="#8E9198"/>
<path d="M15.1663 19.8334C15.1663 20.4777 14.644 21.0001 13.9997 21.0001C13.3553 21.0001 12.833 20.4777 12.833 19.8334C12.833 19.1891 13.3553 18.6667 13.9997 18.6667C14.644 18.6667 15.1663 19.1891 15.1663 19.8334Z" fill="#8E9198"/>
<path d="M8.16634 16.3334C8.81067 16.3334 9.33301 15.8111 9.33301 15.1667C9.33301 14.5224 8.81067 14.0001 8.16634 14.0001C7.52201 14.0001 6.99968 14.5224 6.99968 15.1667C6.99968 15.8111 7.52201 16.3334 8.16634 16.3334Z" fill="#8E9198"/>
<path d="M8.16634 21.0001C8.81067 21.0001 9.33301 20.4777 9.33301 19.8334C9.33301 19.1891 8.81067 18.6667 8.16634 18.6667C7.52201 18.6667 6.99968 19.1891 6.99968 19.8334C6.99968 20.4777 7.52201 21.0001 8.16634 21.0001Z" fill="#8E9198"/>
<path fill-rule="evenodd" clip-rule="evenodd" d="M8.16634 2.04175C8.64959 2.04175 9.04134 2.4335 9.04134 2.91675V3.80659C9.81367 3.79173 10.6646 3.79174 11.6004 3.79175H16.3988C17.3347 3.79174 18.1857 3.79173 18.958 3.80659V2.91675C18.958 2.4335 19.3498 2.04175 19.833 2.04175C20.3163 2.04175 20.708 2.4335 20.708 2.91675V3.88168C21.0113 3.9048 21.2985 3.93387 21.5702 3.9704C22.938 4.1543 24.0451 4.54177 24.9182 5.41486C25.7913 6.28796 26.1788 7.39506 26.3627 8.76289C26.5414 10.092 26.5414 11.7902 26.5413 13.9342V16.3992C26.5414 18.5433 26.5414 20.2415 26.3627 21.5706C26.1788 22.9384 25.7913 24.0455 24.9182 24.9186C24.0451 25.7917 22.938 26.1792 21.5702 26.3631C20.2411 26.5418 18.5429 26.5418 16.3989 26.5417H11.6005C9.4565 26.5418 7.75822 26.5418 6.42915 26.3631C5.06132 26.1792 3.95422 25.7917 3.08113 24.9186C2.20803 24.0455 1.82056 22.9384 1.63667 21.5706C1.45798 20.2415 1.45799 18.5433 1.45801 16.3992V13.9343C1.45799 11.7902 1.45798 10.092 1.63667 8.76289C1.82056 7.39506 2.20803 6.28796 3.08113 5.41486C3.95422 4.54177 5.06132 4.1543 6.42915 3.9704C6.7009 3.93387 6.98808 3.9048 7.29134 3.88168V2.91675C7.29134 2.4335 7.68309 2.04175 8.16634 2.04175ZM6.66233 5.7048C5.48856 5.86261 4.81231 6.15856 4.31856 6.6523C3.82482 7.14605 3.52887 7.8223 3.37106 8.99607C3.34433 9.19485 3.32199 9.40413 3.30331 9.62508H24.696C24.6774 9.40413 24.655 9.19486 24.6283 8.99607C24.4705 7.8223 24.1745 7.14605 23.6808 6.6523C23.187 6.15856 22.5108 5.86261 21.337 5.7048C20.1381 5.54361 18.5576 5.54175 16.333 5.54175H11.6663C9.44172 5.54175 7.86127 5.54361 6.66233 5.7048ZM3.20801 14.0001C3.20801 13.0037 3.20838 12.1366 3.22327 11.3751H24.7761C24.791 12.1366 24.7913 13.0037 24.7913 14.0001V16.3334C24.7913 18.558 24.7895 20.1385 24.6283 21.3374C24.4705 22.5112 24.1745 23.1874 23.6808 23.6812C23.187 24.1749 22.5108 24.4709 21.337 24.6287C20.1381 24.7899 18.5576 24.7917 16.333 24.7917H11.6663C9.44172 24.7917 7.86127 24.7899 6.66233 24.6287C5.48856 24.4709 4.81231 24.1749 4.31856 23.6812C3.82482 23.1874 3.52887 22.5112 3.37106 21.3374C3.20987 20.1385 3.20801 18.558 3.20801 16.3334V14.0001Z" fill="#8E9198"/>
</svg>
