<svg width="28" height="28" viewBox="0 0 28 28" fill="none" xmlns="http://www.w3.org/2000/svg">
<path fill-rule="evenodd" clip-rule="evenodd" d="M6.37771 5.12409C6.71908 5.46614 6.71853 6.02015 6.37648 6.36152C4.4181 8.316 3.20801 11.0159 3.20801 14C3.20801 17.0191 4.44658 19.7473 6.44555 21.7069C6.79064 22.0452 6.79614 22.5992 6.45785 22.9443C6.11955 23.2893 5.56556 23.2948 5.22047 22.9565C2.89959 20.6814 1.45801 17.5083 1.45801 14C1.45801 10.5325 2.86641 7.39218 5.14027 5.12285C5.48232 4.78148 6.03634 4.78204 6.37771 5.12409ZM21.7188 5.20853C22.0639 4.87024 22.6179 4.87574 22.9562 5.22083C25.173 7.48214 26.5413 10.5822 26.5413 14C26.5413 17.4586 25.1403 20.5915 22.8769 22.8594C22.5355 23.2015 21.9815 23.202 21.6394 22.8607C21.2974 22.5193 21.2968 21.9653 21.6382 21.6232C23.5876 19.67 24.7913 16.9764 24.7913 14C24.7913 11.0585 23.6156 8.39335 21.7065 6.44591C21.3682 6.10082 21.3737 5.54683 21.7188 5.20853ZM9.69378 8.7355C10.024 9.08835 10.0056 9.64206 9.65277 9.97226C8.54571 11.0082 7.87467 12.4253 7.87467 13.9793C7.87467 15.5513 8.56148 16.9835 9.69183 18.0225C10.0476 18.3496 10.0709 18.9031 9.74387 19.2589C9.41683 19.6146 8.8633 19.6379 8.50752 19.3109C7.04596 17.9674 6.12467 16.0795 6.12467 13.9793C6.12467 11.9035 7.02474 10.0348 8.45702 8.69449C8.80987 8.36429 9.36358 8.38265 9.69378 8.7355ZM18.3664 8.77986C18.7004 8.43064 19.2543 8.41832 19.6035 8.75235C21.0002 10.0883 21.8747 11.9333 21.8747 13.9793C21.8747 16.0496 20.9793 17.914 19.5535 19.2536C19.2013 19.5845 18.6476 19.5672 18.3167 19.215C17.9858 18.8628 18.0031 18.3091 18.3552 17.9782C19.4571 16.9429 20.1247 15.5292 20.1247 13.9793C20.1247 12.4474 19.4727 11.0489 18.3939 10.017C18.0446 9.68296 18.0323 9.12908 18.3664 8.77986ZM14.6906 10.3697C14.7111 10.381 14.7316 10.3922 14.7522 10.4034C15.0328 10.557 15.311 10.7173 15.562 10.876C15.8478 11.0566 16.1516 11.2687 16.4499 11.4877C16.4678 11.5008 16.4856 11.5139 16.5034 11.5269C16.9797 11.8765 17.4255 12.2037 17.7409 12.5342C18.1065 12.9174 18.3747 13.3827 18.3747 14.0001C18.3747 14.6174 18.1065 15.0827 17.7409 15.4659C17.4255 15.7964 16.9797 16.1236 16.5034 16.4732C16.4856 16.4862 16.4678 16.4993 16.4499 16.5124C16.1516 16.7314 15.8478 16.9435 15.562 17.1242C15.311 17.2828 15.0328 17.4431 14.7522 17.5967C14.7316 17.6079 14.7111 17.6192 14.6906 17.6304C14.2232 17.8864 13.7691 18.1351 13.3699 18.2642C12.8929 18.4184 12.341 18.4524 11.8108 18.0942C11.3113 17.7567 11.1068 17.2572 11.0043 16.781C10.9107 16.3466 10.8754 15.7952 10.8363 15.1861C10.835 15.166 10.8337 15.1458 10.8324 15.1256C10.8076 14.7403 10.7913 14.3537 10.7913 14.0001C10.7913 13.6465 10.8076 13.2599 10.8324 12.8746C10.8337 12.8543 10.835 12.8341 10.8363 12.814C10.8754 12.2049 10.9107 11.6536 11.0043 11.2191C11.1068 10.743 11.3113 10.2434 11.8108 9.90593C12.341 9.54773 12.8929 9.58175 13.3699 9.73598C13.7691 9.86505 14.2232 10.1137 14.6906 10.3697ZM12.7759 11.385C12.7606 11.4184 12.7382 11.4801 12.7151 11.5875C12.6523 11.879 12.6231 12.2973 12.5788 12.9868C12.5555 13.3496 12.5413 13.6963 12.5413 14.0001C12.5413 14.3039 12.5555 14.6506 12.5788 15.0133C12.6231 15.7028 12.6523 16.1212 12.7151 16.4126C12.7382 16.52 12.7606 16.5817 12.7759 16.6152C12.7909 16.6114 12.8093 16.6062 12.8315 16.599C13.053 16.5274 13.3585 16.3645 13.912 16.0616C14.1724 15.9191 14.4167 15.7778 14.627 15.6448C14.8671 15.4932 15.1355 15.3064 15.4142 15.1018C15.963 14.6989 16.2793 14.4628 16.4747 14.2579C16.6254 14.1 16.625 14.0434 16.6247 14.0048C16.6247 14.0032 16.6247 14.0016 16.6247 14.0001C16.6247 13.9985 16.6247 13.997 16.6247 13.9954C16.625 13.9567 16.6254 13.9001 16.4747 13.7422C16.2793 13.5374 15.963 13.3012 15.4142 12.8983C15.1355 12.6937 14.8671 12.507 14.627 12.3553C14.4167 12.2224 14.1724 12.0811 13.912 11.9386C13.3585 11.6356 13.053 11.4727 12.8315 11.4011C12.8093 11.3939 12.7909 11.3887 12.7759 11.385Z" fill="#8E9198"/>
</svg>
