<svg width="28" height="28" viewBox="0 0 28 28" fill="none" xmlns="http://www.w3.org/2000/svg">
<rect x="1" y="1" width="26" height="26" rx="13" stroke="#8E9198" stroke-width="2"/>
<g clip-path="url(#clip0_107_20053)">
<path d="M11.5774 14.9471L11.3043 14.2486L11.3043 14.2486L11.5774 14.9471ZM16.4235 13.0531L16.1505 12.3545V12.3545L16.4235 13.0531ZM15.7132 20.7529L16.189 21.3326L16.189 21.3326L15.7132 20.7529ZM15.8655 20.6061L16.4271 21.1032L16.4271 21.1032L15.8655 20.6061ZM7.91114 17.1685L7.16426 17.1001L7.16426 17.1001L7.91114 17.1685ZM7.90865 17.38L7.16037 17.4307L7.16037 17.4307L7.90865 17.38ZM12.2877 7.24732L11.8119 6.66758L11.8119 6.66758L12.2877 7.24732ZM12.1354 7.39407L11.5738 6.89696L11.5738 6.89696L12.1354 7.39407ZM20.0922 10.6202L20.8405 10.5695L20.8405 10.5695L20.0922 10.6202ZM20.0897 10.8317L20.8366 10.9001L20.8366 10.9001L20.0897 10.8317ZM16.6274 18.6956C16.509 18.2986 16.0912 18.0729 15.6943 18.1914C15.2974 18.3098 15.0716 18.7276 15.1901 19.1245L15.9088 18.91L16.6274 18.6956ZM14.0004 14.0001L13.7274 13.3016L11.3043 14.2486L11.5774 14.9471L11.8504 15.6457L14.2735 14.6986L14.0004 14.0001ZM14.9711 16.4138L15.6669 16.134L14.6963 13.7203L14.0004 14.0001L13.3046 14.2799L14.2753 16.6936L14.9711 16.4138ZM14.0004 14.0001L14.2735 14.6986L16.6965 13.7516L16.4235 13.0531L16.1505 12.3545L13.7274 13.3016L14.0004 14.0001ZM13.0298 11.5864L12.3339 11.8662L13.3046 14.2799L14.0004 14.0001L14.6963 13.7203L13.7256 11.3066L13.0298 11.5864ZM11.521 19.7373L11.2235 20.4257C12.3878 20.9289 13.3317 21.3385 14.063 21.5464C14.7636 21.7454 15.56 21.8489 16.189 21.3326L15.7132 20.7529L15.2374 20.1731C15.231 20.1784 15.1169 20.2864 14.473 20.1035C13.8599 19.9293 13.0254 19.5704 11.8185 19.0488L11.521 19.7373ZM15.7132 20.7529L16.189 21.3326C16.2743 21.2626 16.3539 21.1859 16.4271 21.1032L15.8655 20.6061L15.3039 20.109C15.2835 20.1321 15.2613 20.1535 15.2374 20.1731L15.7132 20.7529ZM11.5774 14.9471L11.3043 14.2486C10.1291 14.7079 9.17387 15.0795 8.51155 15.4457C7.87682 15.7967 7.23879 16.286 7.16426 17.1001L7.91114 17.1685L8.65801 17.2368C8.65834 17.2333 8.6563 17.0797 9.2374 16.7584C9.79091 16.4523 10.6314 16.1221 11.8504 15.6457L11.5774 14.9471ZM11.521 19.7373L11.8185 19.0488C10.6117 18.5272 9.77842 18.1654 9.23145 17.8382C8.65701 17.4946 8.65749 17.3375 8.65693 17.3293L7.90865 17.38L7.16037 17.4307C7.21539 18.2426 7.83647 18.7517 8.46151 19.1255C9.11402 19.5158 10.0592 19.9225 11.2235 20.4257L11.521 19.7373ZM7.91114 17.1685L7.16426 17.1001C7.1542 17.21 7.1529 17.3206 7.16037 17.4307L7.90865 17.38L8.65693 17.3293C8.65484 17.2984 8.65521 17.2675 8.65801 17.2368L7.91114 17.1685ZM16.4799 8.26295L16.7774 7.57449C15.6131 7.07131 14.6692 6.66165 13.9379 6.45384C13.2373 6.25478 12.4409 6.15132 11.8119 6.66758L12.2877 7.24732L12.7635 7.82706C12.7699 7.82181 12.884 7.71378 13.5279 7.89673C14.141 8.07092 14.9755 8.42983 16.1823 8.95141L16.4799 8.26295ZM12.2877 7.24732L11.8119 6.66758C11.7266 6.73761 11.6469 6.8143 11.5738 6.89696L12.1354 7.39407L12.6969 7.89118C12.7173 7.86814 12.7396 7.84669 12.7635 7.82706L12.2877 7.24732ZM16.4799 8.26295L16.1823 8.95141C17.3892 9.47298 18.2225 9.83483 18.7694 10.162C19.3439 10.5056 19.3434 10.6627 19.3439 10.6709L20.0922 10.6202L20.8405 10.5695C20.7855 9.75762 20.1644 9.24849 19.5394 8.87466C18.8869 8.48439 17.9417 8.07767 16.7774 7.57449L16.4799 8.26295ZM16.4235 13.0531L16.6965 13.7516C17.8718 13.2923 18.827 12.9207 19.4893 12.5545C20.1241 12.2035 20.7621 11.7142 20.8366 10.9001L20.0897 10.8317L19.3429 10.7634C19.3425 10.7669 19.3446 10.9205 18.7635 11.2418C18.21 11.5479 17.3695 11.8781 16.1505 12.3545L16.4235 13.0531ZM20.0922 10.6202L19.3439 10.6709C19.346 10.7018 19.3457 10.7327 19.3429 10.7634L20.0897 10.8317L20.8366 10.9001C20.8467 10.7902 20.848 10.6796 20.8405 10.5695L20.0922 10.6202ZM15.9088 18.91L15.1901 19.1245C15.3051 19.5099 15.3458 19.7622 15.3439 19.9278C15.3423 20.0729 15.3097 20.1026 15.3039 20.109L15.8655 20.6061L16.4271 21.1032C17.0314 20.4206 16.8673 19.4994 16.6274 18.6956L15.9088 18.91ZM12.0921 9.09016L12.8108 8.87568C12.6958 8.49031 12.6551 8.238 12.6569 8.07241C12.6586 7.92729 12.6912 7.89764 12.6969 7.89118L12.1354 7.39407L11.5738 6.89696C10.9695 7.57961 11.1335 8.50075 11.3734 9.30464L12.0921 9.09016Z" fill="#8E9198"/>
<path d="M14.4639 9.7749L16.7587 10.7667" stroke="#8E9198" stroke-width="1.5"/>
<path d="M11.2412 17.2334L13.5361 18.2252" stroke="#8E9198" stroke-width="1.5"/>
</g>
<defs>
<clipPath id="clip0_107_20053">
<rect width="15" height="15" fill="white" transform="translate(10.0908 4.14014) rotate(23.3726)"/>
</clipPath>
</defs>
</svg>
