<svg width="42" height="42" viewBox="0 0 42 42" fill="none" xmlns="http://www.w3.org/2000/svg">
<path fill-rule="evenodd" clip-rule="evenodd" d="M31.5 10.5875V9.62499C31.5002 8.97023 31.3535 8.32377 31.0706 7.73329C30.7877 7.1428 30.3758 6.62334 29.8654 6.21321C29.3551 5.80308 28.7591 5.51275 28.1216 5.3636C27.484 5.21446 26.8211 5.21032 26.1818 5.35149C26.0011 4.34069 25.4707 3.42563 24.6833 2.76652C23.896 2.10741 22.9018 1.74625 21.875 1.74625C20.8482 1.74625 19.8541 2.10741 19.0667 2.76652C18.2794 3.42563 17.7489 4.34069 17.5683 5.35149C16.9289 5.21032 16.266 5.21446 15.6285 5.3636C14.9909 5.51275 14.395 5.80308 13.8846 6.21321C13.3742 6.62334 12.9624 7.1428 12.6795 7.73329C12.3966 8.32377 12.2498 8.97023 12.25 9.62499V18.3085C11.7822 17.9121 11.2715 17.5693 10.7275 17.2865C8.94253 16.38 7.21003 16.52 5.38478 17.2655C3.91478 17.8692 3.44753 19.5545 4.07753 20.8145L9.05103 30.7615C10.2136 33.0865 12.0006 35.0419 14.2118 36.4087C16.423 37.7754 18.971 38.4996 21.5705 38.5H22.75C26.4631 38.5 30.024 37.025 32.6495 34.3995C35.275 31.774 36.75 28.213 36.75 24.5V14.875C36.7502 14.2262 36.606 13.5854 36.3279 12.9992C36.0499 12.413 35.6449 11.8959 35.1424 11.4855C34.6398 11.0751 34.0523 10.7816 33.4223 10.6263C32.7924 10.471 32.1357 10.4577 31.5 10.5875ZM17.5 9.62499C17.5 9.39292 17.4078 9.17036 17.2437 9.00627C17.0797 8.84217 16.8571 8.74999 16.625 8.74999C16.393 8.74999 16.1704 8.84217 16.0063 9.00627C15.8422 9.17036 15.75 9.39292 15.75 9.62499V22.75C15.7497 23.1123 15.637 23.4656 15.4274 23.7611C15.2178 24.0566 14.9216 24.2798 14.5798 24.3998C14.2379 24.5198 13.8673 24.5308 13.5189 24.4312C13.1706 24.3316 12.8617 24.1263 12.635 23.8437C11.0163 21.8207 9.98028 20.8337 9.14378 20.4067C8.69749 20.164 8.17834 20.0912 7.68253 20.202L12.18 29.197C13.0522 30.9407 14.3926 32.4072 16.0512 33.4321C17.7097 34.457 19.6209 34.9999 21.5705 35H22.75C25.5348 35 28.2055 33.8937 30.1746 31.9246C32.1438 29.9555 33.25 27.2848 33.25 24.5V14.875C33.25 14.6429 33.1578 14.4204 32.9937 14.2563C32.8297 14.0922 32.6071 14 32.375 14C32.143 14 31.9204 14.0922 31.7563 14.2563C31.5922 14.4204 31.5 14.6429 31.5 14.875V19.25C31.5 19.7141 31.3157 20.1592 30.9875 20.4874C30.6593 20.8156 30.2142 21 29.75 21C29.2859 21 28.8408 20.8156 28.5126 20.4874C28.1844 20.1592 28 19.7141 28 19.25V9.62499C28 9.39292 27.9078 9.17036 27.7437 9.00627C27.5797 8.84217 27.3571 8.74999 27.125 8.74999C26.893 8.74999 26.6704 8.84217 26.5063 9.00627C26.3422 9.17036 26.25 9.39292 26.25 9.62499V17.5C26.25 17.9641 26.0657 18.4092 25.7375 18.7374C25.4093 19.0656 24.9642 19.25 24.5 19.25C24.0359 19.25 23.5908 19.0656 23.2626 18.7374C22.9344 18.4092 22.75 17.9641 22.75 17.5V6.12499C22.75 5.89292 22.6578 5.67036 22.4937 5.50627C22.3297 5.34217 22.1071 5.24999 21.875 5.24999C21.643 5.24999 21.4204 5.34217 21.2563 5.50627C21.0922 5.67036 21 5.89292 21 6.12499V19.25C21 19.7141 20.8157 20.1592 20.4875 20.4874C20.1593 20.8156 19.7142 21 19.25 21C18.7859 21 18.3408 20.8156 18.0126 20.4874C17.6844 20.1592 17.5 19.7141 17.5 19.25V9.62499Z" fill="white"/>
</svg>
