<svg width="30" height="30" viewBox="0 0 30 30" fill="none" xmlns="http://www.w3.org/2000/svg">
<path fill-rule="evenodd" clip-rule="evenodd" d="M26.25 17.1875C26.25 23.4007 21.2132 28.4375 15 28.4375C8.7868 28.4375 3.75 23.4007 3.75 17.1875C3.75 10.9743 8.7868 5.9375 15 5.9375C21.2132 5.9375 26.25 10.9743 26.25 17.1875ZM13.75 20.3125V14.0625C13.75 13.4801 13.75 13.1889 13.6549 12.9591C13.528 12.6529 13.2846 12.4095 12.9784 12.2826C12.7486 12.1875 12.4574 12.1875 11.875 12.1875C11.2926 12.1875 11.0014 12.1875 10.7716 12.2826C10.4654 12.4095 10.222 12.6529 10.0952 12.9591C10 13.1889 10 13.4801 10 14.0625V20.3125C10 20.8949 10 21.1861 10.0952 21.4159C10.222 21.7221 10.4654 21.9655 10.7716 22.0924C11.0014 22.1875 11.2926 22.1875 11.875 22.1875C12.4574 22.1875 12.7486 22.1875 12.9784 22.0924C13.2846 21.9655 13.528 21.7221 13.6549 21.4159C13.75 21.1861 13.75 20.8949 13.75 20.3125ZM20 20.3125V14.0625C20 13.4801 20 13.1889 19.9049 12.9591C19.778 12.6529 19.5346 12.4095 19.2284 12.2826C18.9986 12.1875 18.7074 12.1875 18.125 12.1875C17.5426 12.1875 17.2514 12.1875 17.0216 12.2826C16.7154 12.4095 16.472 12.6529 16.3451 12.9591C16.25 13.1889 16.25 13.4801 16.25 14.0625V20.3125C16.25 20.8949 16.25 21.1861 16.3451 21.4159C16.472 21.7221 16.7154 21.9655 17.0216 22.0924C17.2514 22.1875 17.5426 22.1875 18.125 22.1875C18.7074 22.1875 18.9986 22.1875 19.2284 22.0924C19.5346 21.9655 19.778 21.7221 19.9049 21.4159C20 21.1861 20 20.8949 20 20.3125Z" fill="white"/>
<path d="M12.5 2.5C11.9822 2.5 11.5625 2.91973 11.5625 3.4375C11.5625 3.95527 11.9822 4.375 12.5 4.375H17.5C18.0178 4.375 18.4375 3.95527 18.4375 3.4375C18.4375 2.91973 18.0178 2.5 17.5 2.5H12.5Z" fill="white"/>
</svg>
