<svg width="32" height="32" viewBox="0 0 32 32" fill="none" xmlns="http://www.w3.org/2000/svg">
<rect x="0.5" y="0.5" width="31" height="31" rx="15.5" fill="white"/>
<rect x="0.5" y="0.5" width="31" height="31" rx="15.5" stroke="#EEEEEE"/>
<path fill-rule="evenodd" clip-rule="evenodd" d="M15.5865 10.9769C13.5077 10.9769 11.7997 12.5672 11.6137 14.5973C11.587 14.8893 11.3419 15.1116 11.0499 15.1113C9.99903 15.1104 9.11628 15.985 9.11628 17.0337C9.11628 18.0955 9.977 18.9562 11.0388 18.9562H11.5349C11.8431 18.9562 12.093 19.2061 12.093 19.5143C12.093 19.8226 11.8431 20.0725 11.5349 20.0725H11.0388C9.3605 20.0725 8 18.712 8 17.0337C8 15.5271 9.12794 14.268 10.5657 14.034C11.0041 11.6591 13.085 9.8606 15.5865 9.8606C17.4489 9.8606 19.0775 10.8577 19.969 12.3452C22.1041 12.261 24 14.0074 24 16.2069C24 18.2116 22.4743 19.8594 20.5203 20.0534C20.2135 20.0839 19.9402 19.8599 19.9097 19.5532C19.8792 19.2464 20.1032 18.9731 20.41 18.9426C21.7987 18.8047 22.8837 17.6321 22.8837 16.2069C22.8837 14.5601 21.3605 13.2534 19.7404 13.4855C19.5019 13.5196 19.2648 13.3988 19.1546 13.1793C18.4984 11.8721 17.1465 10.9769 15.5865 10.9769Z" fill="#8E9198"/>
<path fill-rule="evenodd" clip-rule="evenodd" d="M15.9997 17.1614L17.4654 18.6271C17.6834 18.8451 18.0368 18.8451 18.2548 18.6271C18.4727 18.4092 18.4727 18.0558 18.2548 17.8378L16.6574 16.2404C16.2941 15.8772 15.7052 15.8772 15.3419 16.2404L13.7445 17.8378C13.5266 18.0558 13.5266 18.4092 13.7445 18.6271C13.9625 18.8451 14.3159 18.8451 14.5338 18.6271L15.9997 17.1614Z" fill="#8E9198"/>
<path fill-rule="evenodd" clip-rule="evenodd" d="M15.9995 22.1395C16.3078 22.1395 16.5577 21.8896 16.5577 21.5814V17.1162C16.5577 16.808 16.3078 16.5581 15.9995 16.5581C15.6913 16.5581 15.4414 16.808 15.4414 17.1162V21.5814C15.4414 21.8896 15.6913 22.1395 15.9995 22.1395Z" fill="#8E9198"/>
<path opacity="0.1" d="M11.0388 20.0786H11.5349L20.5203 20.0595C22.4743 19.8655 24 18.2177 24 16.213C24 14.0135 22.1041 12.2671 19.969 12.3513C19.0775 10.8638 17.4489 9.8667 15.5865 9.8667C13.085 9.8667 11.0041 11.6652 10.5657 14.0401C9.12794 14.2741 8 15.5332 8 17.0398C8 18.7181 9.3605 20.0786 11.0388 20.0786Z" fill="#8E9198"/>
</svg>
