<svg width="20" height="20" viewBox="0 0 20 20" fill="none" xmlns="http://www.w3.org/2000/svg">
<path fill-rule="evenodd" clip-rule="evenodd" d="M6.87484 7.49984C6.87484 5.77395 8.27395 4.37484 9.99984 4.37484C11.7257 4.37484 13.1248 5.77395 13.1248 7.49984C13.1248 9.22573 11.7257 10.6248 9.99984 10.6248C8.27395 10.6248 6.87484 9.22573 6.87484 7.49984ZM9.99984 5.62484C8.9643 5.62484 8.12484 6.4643 8.12484 7.49984C8.12484 8.53537 8.9643 9.37484 9.99984 9.37484C11.0354 9.37484 11.8748 8.53537 11.8748 7.49984C11.8748 6.4643 11.0354 5.62484 9.99984 5.62484Z" fill="#323133"/>
<path fill-rule="evenodd" clip-rule="evenodd" d="M1.0415 9.99984C1.0415 5.05229 5.05229 1.0415 9.99984 1.0415C14.9474 1.0415 18.9582 5.05229 18.9582 9.99984C18.9582 14.9474 14.9474 18.9582 9.99984 18.9582C5.05229 18.9582 1.0415 14.9474 1.0415 9.99984ZM9.99984 2.2915C5.74264 2.2915 2.2915 5.74264 2.2915 9.99984C2.2915 12.1212 3.14839 14.0423 4.53492 15.4361C4.68525 14.6252 4.98062 13.8606 5.57348 13.2458C6.46027 12.3261 7.87831 11.8748 9.9998 11.8748C12.1213 11.8748 13.5393 12.3261 14.4261 13.2458C15.019 13.8606 15.3144 14.6252 15.4647 15.4362C16.8513 14.0424 17.7082 12.1212 17.7082 9.99984C17.7082 5.74264 14.257 2.2915 9.99984 2.2915ZM14.3279 16.3793C14.243 15.3694 14.0237 14.6293 13.5263 14.1134C12.9851 13.5521 11.9823 13.1248 9.9998 13.1248C8.01733 13.1248 7.01451 13.5521 6.47329 14.1134C5.97589 14.6292 5.7566 15.3694 5.67169 16.3793C6.90554 17.218 8.39545 17.7082 9.99984 17.7082C11.6042 17.7082 13.0941 17.218 14.3279 16.3793Z" fill="#323133"/>
</svg>
