<svg width="20" height="20" viewBox="0 0 20 20" fill="none" xmlns="http://www.w3.org/2000/svg">
<path d="M6.6665 14.1665C7.12674 14.1665 7.49984 13.7934 7.49984 13.3332C7.49984 12.8729 7.12674 12.4998 6.6665 12.4998C6.20627 12.4998 5.83317 12.8729 5.83317 13.3332C5.83317 13.7934 6.20627 14.1665 6.6665 14.1665Z" fill="#323133"/>
<path d="M9.99984 14.1665C10.4601 14.1665 10.8332 13.7934 10.8332 13.3332C10.8332 12.8729 10.4601 12.4998 9.99984 12.4998C9.5396 12.4998 9.16651 12.8729 9.16651 13.3332C9.16651 13.7934 9.5396 14.1665 9.99984 14.1665Z" fill="#323133"/>
<path d="M14.1665 13.3332C14.1665 13.7934 13.7934 14.1665 13.3332 14.1665C12.8729 14.1665 12.4998 13.7934 12.4998 13.3332C12.4998 12.8729 12.8729 12.4998 13.3332 12.4998C13.7934 12.4998 14.1665 12.8729 14.1665 13.3332Z" fill="#323133"/>
<path fill-rule="evenodd" clip-rule="evenodd" d="M5.62484 6.6665C5.62484 4.25026 7.58359 2.2915 9.99984 2.2915C12.0376 2.2915 13.7513 3.68519 14.237 5.57229C14.3231 5.90657 14.6638 6.10782 14.9981 6.02178C15.3324 5.93574 15.5336 5.595 15.4476 5.26072C14.8232 2.83475 12.6217 1.0415 9.99984 1.0415C6.89324 1.0415 4.37484 3.5599 4.37484 6.6665V7.75214C4.18581 7.76543 4.00765 7.78274 3.84005 7.80527C3.08996 7.90612 2.45839 8.12186 1.9568 8.62346C1.4552 9.12506 1.23945 9.75662 1.13861 10.5067C1.04147 11.2292 1.04149 12.1478 1.0415 13.2874V13.3789C1.04149 14.5186 1.04147 15.4372 1.13861 16.1596C1.23945 16.9097 1.4552 17.5413 1.9568 18.0429C2.45839 18.5445 3.08996 18.7602 3.84005 18.8611C4.56252 18.9582 5.48112 18.9582 6.62078 18.9582H13.3789C14.5186 18.9582 15.4372 18.9582 16.1596 18.8611C16.9097 18.7602 17.5413 18.5445 18.0429 18.0429C18.5445 17.5413 18.7602 16.9097 18.8611 16.1596C18.9582 15.4372 18.9582 14.5186 18.9582 13.3789V13.2874C18.9582 12.1478 18.9582 11.2292 18.8611 10.5067C18.7602 9.75662 18.5445 9.12506 18.0429 8.62346C17.5413 8.12186 16.9097 7.90612 16.1596 7.80527C15.4372 7.70814 14.5186 7.70815 13.3789 7.70817H6.62078C6.26784 7.70816 5.93611 7.70816 5.62484 7.71104V6.6665ZM4.00661 9.04413C3.39513 9.12634 3.07132 9.27671 2.84068 9.50735C2.61004 9.73798 2.45967 10.0618 2.37746 10.6733C2.29283 11.3027 2.29151 12.137 2.29151 13.3332C2.29151 14.5293 2.29283 15.3636 2.37746 15.9931C2.45967 16.6045 2.61004 16.9284 2.84068 17.159C3.07132 17.3896 3.39513 17.54 4.00661 17.6222C4.63606 17.7068 5.47032 17.7082 6.6665 17.7082H13.3332C14.5294 17.7082 15.3636 17.7068 15.9931 17.6222C16.6046 17.54 16.9284 17.3896 17.159 17.159C17.3896 16.9284 17.54 16.6045 17.6222 15.9931C17.7068 15.3636 17.7082 14.5293 17.7082 13.3332C17.7082 12.137 17.7068 11.3027 17.6222 10.6733C17.54 10.0618 17.3896 9.73798 17.159 9.50735C16.9284 9.27671 16.6046 9.12634 15.9931 9.04413C15.3636 8.9595 14.5294 8.95817 13.3332 8.95817H6.6665C5.47032 8.95817 4.63606 8.9595 4.00661 9.04413Z" fill="#323133"/>
</svg>
