<svg width="18" height="18" viewBox="0 0 18 18" fill="none" xmlns="http://www.w3.org/2000/svg">
<g clip-path="url(#clip0_107_14767)">
<path opacity="0.1" d="M8.96211 0.787537C7.34525 0.787537 5.7647 1.26699 4.42032 2.16527C3.07595 3.06355 2.02814 4.34031 1.4094 5.8341C0.790651 7.32788 0.628759 8.9716 0.944193 10.5574C1.25963 12.1432 2.03822 13.5998 3.18151 14.7431C4.32481 15.8864 5.78145 16.665 7.36725 16.9805C8.95304 17.2959 10.5968 17.134 12.0905 16.5152C13.5843 15.8965 14.8611 14.8487 15.7594 13.5043C16.6577 12.1599 17.1371 10.5794 17.1371 8.96253C17.1351 6.79501 16.2732 4.71684 14.7405 3.18416C13.2078 1.65149 11.1296 0.78955 8.96211 0.787537Z" fill="#DF001B"/>
<path d="M8.96165 17.2499C7.3316 17.2424 5.74034 16.7521 4.38869 15.841C3.03704 14.9298 1.98558 13.6387 1.36704 12.1306C0.748496 10.6224 0.590583 8.96485 0.913232 7.36704C1.23588 5.76923 2.02463 4.30281 3.17993 3.15286C4.33523 2.00291 5.80529 1.22097 7.40458 0.905741C9.00387 0.59051 10.6607 0.756113 12.166 1.38165C13.6712 2.00719 14.9574 3.06462 15.8623 4.42048C16.7671 5.77634 17.25 7.36987 17.25 8.99993C17.249 10.0863 17.0337 11.1618 16.6163 12.1648C16.199 13.1677 15.5878 14.0785 14.8178 14.8449C14.0479 15.6113 13.1343 16.2182 12.1294 16.6309C11.1245 17.0436 10.048 17.254 8.96165 17.2499ZM8.96165 1.90108C7.55763 1.90108 6.18514 2.31742 5.01774 3.09745C3.85034 3.87748 2.94046 4.98617 2.40316 6.28332C1.86587 7.58046 1.72529 9.0078 1.9992 10.3848C2.27311 11.7619 2.94921 13.0268 3.942 14.0196C4.93479 15.0124 6.19969 15.6885 7.57673 15.9624C8.95377 16.2363 10.3811 16.0957 11.6783 15.5584C12.9754 15.0211 14.0841 14.1112 14.8641 12.9438C15.6442 11.7764 16.0605 10.4039 16.0605 8.99993C16.0585 7.11782 15.3099 5.31338 13.979 3.98253C12.6482 2.65168 10.8438 1.90311 8.96165 1.90108ZM6.91257 11.7627L11.1642 7.50341C11.2975 7.37111 11.3728 7.19127 11.3735 7.00345C11.3743 6.81563 11.3003 6.63522 11.168 6.5019C11.0357 6.36858 10.8559 6.29328 10.6681 6.29256C10.4803 6.29184 10.2998 6.36576 10.1665 6.49806L6.40606 10.2585L4.10373 7.95621C3.97051 7.85336 3.80522 7.8009 3.63707 7.80809C3.46893 7.81529 3.30873 7.88167 3.18478 7.99553C3.06083 8.10938 2.9811 8.26337 2.95967 8.4303C2.93824 8.59724 2.9765 8.76637 3.06768 8.90784L5.90722 11.7474C6.0409 11.88 6.22158 11.9544 6.4099 11.9544C6.59821 11.9544 6.77889 11.88 6.91257 11.7474V11.7627ZM14.8556 6.60551C14.7219 6.47288 14.5412 6.39846 14.3529 6.39846C14.1646 6.39846 13.9839 6.47288 13.8503 6.60551L10.0975 10.366L9.62165 9.89016L8.6163 10.8878L9.5756 11.8471C9.70798 11.9793 9.88738 12.0535 10.0744 12.0535C10.2615 12.0535 10.4409 11.9793 10.5733 11.8471L14.8326 7.58783C14.9615 7.4582 15.0358 7.28404 15.0401 7.10126C15.0443 6.91849 14.9783 6.74103 14.8556 6.60551ZM6.79746 9.05365L7.80281 8.0483L7.75676 8.00225C7.62438 7.8701 7.44497 7.79587 7.25792 7.79587C7.07087 7.79587 6.89146 7.8701 6.75908 8.00225C6.62646 8.13593 6.55203 8.31662 6.55203 8.50493C6.55203 8.69324 6.62646 8.87392 6.75908 9.0076L6.79746 9.05365Z" fill="#DF001B"/>
</g>
<defs>
<clipPath id="clip0_107_14767">
<rect width="18" height="18" fill="white"/>
</clipPath>
</defs>
</svg>
