<svg width="16" height="16" viewBox="0 0 16 16" fill="none" xmlns="http://www.w3.org/2000/svg">
<path d="M10.0902 4.80779V7.43454H1.90288C1.75187 7.43454 1.60704 7.49452 1.50026 7.6013C1.39348 7.70808 1.3335 7.85291 1.3335 8.00392C1.3335 8.15493 1.39348 8.29975 1.50026 8.40653C1.60704 8.51331 1.75187 8.5733 1.90288 8.5733H10.0902V11.1925C10.0893 11.2641 10.11 11.3343 10.1497 11.394C10.1893 11.4537 10.246 11.5001 10.3123 11.5271C10.3787 11.5541 10.4516 11.5606 10.5217 11.5456C10.5917 11.5306 10.6556 11.4948 10.7051 11.443L14.5603 8.25444C14.594 8.22124 14.6208 8.18165 14.6391 8.13799C14.6574 8.09433 14.6668 8.04746 14.6668 8.00012C14.6668 7.95278 14.6574 7.90591 14.6391 7.86225C14.6208 7.81859 14.594 7.779 14.5603 7.7458L10.7051 4.55726C10.6556 4.50543 10.5917 4.46969 10.5217 4.45469C10.4516 4.43969 10.3787 4.44612 10.3123 4.47315C10.246 4.50018 10.1893 4.54655 10.1497 4.60624C10.11 4.66592 10.0893 4.73615 10.0902 4.80779Z" fill="#4B5675"/>
</svg>
