<svg width="30" height="30" viewBox="0 0 30 30" fill="none" xmlns="http://www.w3.org/2000/svg">
<path fill-rule="evenodd" clip-rule="evenodd" d="M15 27.5C21.9036 27.5 27.5 21.9036 27.5 15C27.5 8.09644 21.9036 2.5 15 2.5C8.09644 2.5 2.5 8.09644 2.5 15C2.5 21.9036 8.09644 27.5 15 27.5ZM15.9375 10C15.9375 9.48223 15.5178 9.0625 15 9.0625C14.4822 9.0625 14.0625 9.48223 14.0625 10V15C14.0625 15.2486 14.1613 15.4871 14.3371 15.6629L17.4621 18.7879C17.8282 19.154 18.4218 19.154 18.7879 18.7879C19.154 18.4218 19.154 17.8282 18.7879 17.4621L15.9375 14.6117V10Z" fill="white"/>
</svg>
