<svg width="40" height="40" viewBox="0 0 40 40" fill="none" xmlns="http://www.w3.org/2000/svg">
<path d="M20 37.9333C18.1833 37.9333 16.3833 37.4 14.9666 36.35L7.79996 31C5.89996 29.5833 4.41663 26.6167 4.41663 24.2667V11.8667C4.41663 9.29999 6.29996 6.56666 8.71663 5.66666L17.0333 2.54999C18.6833 1.93333 21.2833 1.93333 22.9333 2.54999L31.25 5.66666C33.6666 6.56666 35.55 9.29999 35.55 11.8667V24.25C35.55 26.6167 34.0666 29.5667 32.1666 30.9833L25 36.3333C23.6166 37.4 21.8166 37.9333 20 37.9333ZM17.9166 4.89999L9.59996 8.01666C8.18329 8.54999 6.93329 10.35 6.93329 11.8833V24.2667C6.93329 25.85 8.04996 28.0667 9.29996 29L16.4666 34.35C18.3833 35.7833 21.6166 35.7833 23.55 34.35L30.7166 29C31.9833 28.05 33.0833 25.85 33.0833 24.2667V11.8667C33.0833 10.35 31.8333 8.54999 30.4166 7.99999L22.1 4.88333C20.9666 4.48333 19.0333 4.48333 17.9166 4.89999Z" fill="white"/>
<path d="M17.7667 23.7167C17.45 23.7167 17.1334 23.6 16.8834 23.35L14.2 20.6667C13.7167 20.1833 13.7167 19.3833 14.2 18.9C14.6834 18.4167 15.4834 18.4167 15.9667 18.9L17.7667 20.7L24.05 14.4167C24.5334 13.9333 25.3334 13.9333 25.8167 14.4167C26.3 14.9 26.3 15.7 25.8167 16.1833L18.65 23.35C18.4 23.6 18.0834 23.7167 17.7667 23.7167Z" fill="white"/>
</svg>
