<svg width="16" height="16" viewBox="0 0 16 16" fill="none" xmlns="http://www.w3.org/2000/svg">
<path opacity="0.1" d="M12.334 5.5332C12.4438 5.53118 12.5528 5.55122 12.6543 5.59082C12.756 5.63057 12.8486 5.68976 12.9248 5.76465C13.0008 5.83946 13.0599 5.92815 13.0977 6.02539C13.1354 6.12275 13.1506 6.22666 13.1436 6.33008L12.6904 13.3574C12.6648 13.7983 12.4624 14.2137 12.124 14.5195C11.7856 14.8253 11.3363 14.9986 10.8672 15.0049L5.4043 15.0664C4.92865 15.0762 4.46679 14.913 4.11523 14.6113C3.76386 14.3096 3.54895 13.8918 3.51562 13.4453L2.85645 6.33691C2.84838 6.23296 2.86313 6.12843 2.90039 6.03027C2.93767 5.93207 2.99696 5.84224 3.07324 5.7666C3.14949 5.69106 3.24158 5.63094 3.34375 5.59082C3.44598 5.55069 3.55625 5.53103 3.66699 5.5332H12.334ZM9.22363 1.83301C9.40274 1.83333 9.57646 1.89684 9.71387 2.01172C9.85118 2.12657 9.9445 2.2858 9.97656 2.46191L10.1543 3.43359H5.86719L6.05176 2.45508C6.08667 2.27981 6.18117 2.12215 6.31934 2.00879C6.45776 1.8953 6.63155 1.83275 6.81055 1.83301H9.22363Z" fill="#D10032"/>
<path d="M5.52007 15.1669C4.96436 15.1616 4.43097 14.9475 4.02585 14.5671C3.62073 14.1867 3.37355 13.6678 3.3334 13.1135L2.84673 6.15352C2.84236 6.08786 2.85095 6.02198 2.87204 5.95964C2.89312 5.8973 2.92628 5.83972 2.96961 5.7902C3.01294 5.74068 3.06561 5.70017 3.1246 5.671C3.18358 5.64183 3.24774 5.62456 3.3134 5.62018C3.37906 5.61581 3.44494 5.6244 3.50728 5.64549C3.56962 5.66657 3.62719 5.69973 3.67672 5.74306C3.72624 5.78639 3.76674 5.83906 3.79592 5.89805C3.82509 5.95703 3.84236 6.02119 3.84673 6.08685L4.32007 13.0468C4.3437 13.3534 4.4828 13.6395 4.70926 13.8474C4.93573 14.0553 5.23266 14.1694 5.54007 14.1669L10.5734 14.1069C10.8792 14.1038 11.1724 13.9842 11.3929 13.7723C11.6135 13.5604 11.7448 13.2723 11.7601 12.9669L12.1534 6.08685C12.1636 5.95423 12.225 5.83076 12.3245 5.74246C12.424 5.65417 12.5538 5.60794 12.6867 5.61352C12.8182 5.6221 12.941 5.68224 13.0284 5.78086C13.1158 5.87948 13.1607 6.00862 13.1534 6.14018L12.7601 13.0269C12.7265 13.5836 12.484 14.1072 12.0811 14.4928C11.6781 14.8785 11.1444 15.0978 10.5867 15.1069L5.5534 15.1669H5.52007ZM9.98673 8.56685C9.98501 8.43478 9.93177 8.3086 9.83838 8.21521C9.74498 8.12181 9.6188 8.06858 9.48673 8.06685H6.5134C6.38079 8.06685 6.25361 8.11953 6.15985 8.2133C6.06608 8.30706 6.0134 8.43424 6.0134 8.56685C6.0134 8.69946 6.06608 8.82663 6.15985 8.9204C6.25361 9.01417 6.38079 9.06685 6.5134 9.06685H9.48673C9.55351 9.06863 9.61996 9.05701 9.68217 9.03269C9.74438 9.00836 9.80109 8.97181 9.84894 8.9252C9.89679 8.87859 9.93481 8.82287 9.96077 8.76132C9.98673 8.69977 10.0001 8.63365 10.0001 8.56685H9.98673ZM9.46673 11.0335C9.46673 10.9009 9.41405 10.7737 9.32029 10.68C9.22652 10.5862 9.09934 10.5335 8.96673 10.5335H7.0334C6.90079 10.5335 6.77361 10.5862 6.67985 10.68C6.58608 10.7737 6.5334 10.9009 6.5334 11.0335C6.5334 11.1661 6.58608 11.2933 6.67985 11.3871C6.77361 11.4808 6.90079 11.5335 7.0334 11.5335H8.96673C9.0988 11.5318 9.22498 11.4786 9.31838 11.3852C9.41177 11.2918 9.46501 11.1656 9.46673 11.0335ZM14.0001 4.34685C13.9838 4.46582 13.9248 4.5748 13.834 4.65334C13.7432 4.73189 13.6268 4.77462 13.5067 4.77352H13.4334C9.83476 4.27895 6.18538 4.27895 2.58673 4.77352C2.52058 4.78494 2.45282 4.78311 2.38738 4.76812C2.32195 4.75314 2.26014 4.7253 2.20556 4.68622C2.15097 4.64714 2.1047 4.59761 2.06942 4.54049C2.03414 4.48338 2.01057 4.41982 2.00007 4.35352C1.97891 4.22268 2.01056 4.08881 2.08807 3.9813C2.16557 3.87379 2.28259 3.80146 2.4134 3.78018C2.50007 3.78018 3.42007 3.62018 4.86673 3.50685L5.10673 2.25352C5.1829 1.85342 5.39649 1.49252 5.71057 1.23323C6.02464 0.973936 6.41945 0.832548 6.82673 0.833516H9.18007C9.59039 0.831559 9.98831 0.974125 10.304 1.23621C10.6198 1.4983 10.8331 1.86317 10.9067 2.26685L11.1334 3.50685C11.9267 3.57352 12.7401 3.65352 13.5734 3.78018C13.6387 3.78918 13.7016 3.811 13.7584 3.84439C13.8153 3.87778 13.865 3.92209 13.9046 3.97476C13.9443 4.02742 13.9731 4.08741 13.9895 4.15127C14.0059 4.21513 14.0095 4.2816 14.0001 4.34685ZM7.70673 3.39352H10.0934L9.92007 2.44685C9.88887 2.27498 9.79842 2.11949 9.66443 2.00743C9.53044 1.89537 9.3614 1.83383 9.18673 1.83352H6.8334C6.65887 1.83327 6.48967 1.89362 6.35471 2.00427C6.21974 2.11492 6.12738 2.269 6.0934 2.44018L5.9134 3.39352H7.70673Z" fill="#D10032"/>
</svg>
