<svg width="18" height="18" viewBox="0 0 18 18" fill="none" xmlns="http://www.w3.org/2000/svg">
<path d="M16.0425 7.8973L15 6.8398C14.9273 6.76858 14.8699 6.68331 14.8312 6.58919C14.7925 6.49507 14.7734 6.39405 14.775 6.2923V4.7923C14.774 4.58681 14.7324 4.38353 14.6527 4.19414C14.5729 4.00476 14.4565 3.833 14.3101 3.68874C14.1638 3.54448 13.9904 3.43055 13.7999 3.35351C13.6093 3.27647 13.4055 3.23783 13.2 3.2398H11.7C11.5982 3.24141 11.4972 3.22228 11.4031 3.1836C11.309 3.14492 11.2237 3.08749 11.1525 3.0148L10.1025 1.9573C9.80999 1.66511 9.41345 1.50098 9 1.50098C8.58655 1.50098 8.19001 1.66511 7.8975 1.9573L6.84 2.9998C6.76878 3.07249 6.68351 3.12992 6.58938 3.1686C6.49526 3.20728 6.39425 3.22641 6.2925 3.2248H4.7925C4.587 3.22578 4.38372 3.26735 4.19434 3.34713C4.00495 3.4269 3.83319 3.54331 3.68893 3.68966C3.54467 3.83602 3.43075 4.00943 3.3537 4.19994C3.27666 4.39046 3.23802 4.59431 3.24 4.7998V6.2998C3.2416 6.40155 3.22248 6.50257 3.1838 6.59669C3.14512 6.69081 3.08768 6.77608 3.015 6.8473L1.9575 7.8973C1.6653 8.18981 1.50117 8.58635 1.50117 8.9998C1.50117 9.41325 1.6653 9.80979 1.9575 10.1023L3 11.1598C3.07268 11.231 3.13012 11.3163 3.1688 11.4104C3.20748 11.5045 3.2266 11.6056 3.225 11.7073V13.2073C3.22598 13.4128 3.26755 13.6161 3.34732 13.8055C3.4271 13.9949 3.54351 14.1666 3.68986 14.3109C3.83621 14.4551 4.00962 14.5691 4.20014 14.6461C4.39065 14.7231 4.59451 14.7618 4.8 14.7598H6.3C6.40175 14.7582 6.50276 14.7773 6.59688 14.816C6.69101 14.8547 6.77628 14.9121 6.8475 14.9848L7.905 16.0423C8.19751 16.3345 8.59405 16.4986 9.0075 16.4986C9.42095 16.4986 9.81749 16.3345 10.11 16.0423L11.16 14.9998C11.2312 14.9271 11.3165 14.8697 11.4106 14.831C11.5047 14.7923 11.6057 14.7732 11.7075 14.7748H13.2075C13.6212 14.7748 14.018 14.6104 14.3106 14.3179C14.6031 14.0253 14.7675 13.6285 14.7675 13.2148V11.7148C14.7659 11.6131 14.785 11.512 14.8237 11.4179C14.8624 11.3238 14.9198 11.2385 14.9925 11.1673L16.05 10.1098C16.1953 9.96434 16.3104 9.79157 16.3888 9.60146C16.4671 9.41134 16.507 9.20761 16.5063 9.00199C16.5056 8.79638 16.4643 8.59293 16.3847 8.40334C16.3051 8.21376 16.1888 8.04178 16.0425 7.8973V7.8973ZM12.135 7.6498L8.4525 11.2498C8.40057 11.3024 8.33865 11.3441 8.27039 11.3724C8.20213 11.4007 8.1289 11.4152 8.055 11.4148C7.98063 11.4138 7.9072 11.398 7.83897 11.3684C7.77074 11.3388 7.70906 11.2959 7.6575 11.2423L5.88 9.4423C5.82533 9.39026 5.7817 9.32775 5.7517 9.25849C5.7217 9.18923 5.70594 9.11464 5.70537 9.03916C5.7048 8.96369 5.71943 8.88887 5.74837 8.81916C5.77732 8.74946 5.82001 8.68629 5.87388 8.63342C5.92775 8.58056 5.99171 8.53908 6.06195 8.51145C6.13219 8.48382 6.20727 8.47061 6.28272 8.4726C6.35817 8.4746 6.43245 8.49176 6.50113 8.52306C6.56982 8.55436 6.63149 8.59917 6.6825 8.6548L8.0625 10.0573L11.3475 6.8473C11.453 6.74197 11.5959 6.6828 11.745 6.6828C11.8941 6.6828 12.037 6.74197 12.1425 6.8473C12.1953 6.90016 12.237 6.963 12.2653 7.03216C12.2936 7.10132 12.3077 7.17542 12.307 7.25013C12.3063 7.32483 12.2908 7.39865 12.2612 7.46728C12.2317 7.5359 12.1888 7.59795 12.135 7.6498Z" fill="#06A533"/>
</svg>
